<svg width="179" height="60" viewBox="0 0 179 60" fill="none" xmlns="http://www.w3.org/2000/svg">
    <path d="M5.17061 38.1814C4.50992 27.3458 10.9626 1.0494 10.9626 1.0494L23 5L19.5259 14.6958C19.5259 14.6958 22.48 21.3257 23.1367 24.8846C24.3064 31.2229 19.8998 41.1184 19.8998 41.1184C19.8998 41.1184 17.5395 39.0793 17.0429 37.2552C16.4243 34.983 18.2271 31.3161 18.2271 31.3161L16.2962 28.8726C14.17 32.8345 10.9201 35.6227 10.5253 37.6024C10.1306 39.5821 13.5187 46.8447 13.5187 46.8447C14.283 49.0913 11.5592 52.6293 11.5592 52.6293C11.5592 52.6293 11.3057 52.2812 10.8996 51.6744C10.8996 51.6744 11.141 55.016 9.92253 54.7731C9.51602 54.692 9.02566 54.3342 8.50809 53.7819C8.50809 53.7819 8.80797 55.2829 7.28106 55.8931C3.53678 57.3896 4.75428 46.3322 4.75428 46.3322C4.03204 43.0975 5.17061 38.1814 5.17061 38.1814Z" fill="url(#paint0_linear_292_5596)"/>
    <path d="M5.17061 38.1814C4.50992 27.3458 10.9626 1.0494 10.9626 1.0494L23 5L19.5259 14.6958C19.5259 14.6958 22.48 21.3257 23.1367 24.8846C24.3064 31.2229 19.8998 41.1184 19.8998 41.1184C19.8998 41.1184 17.5395 39.0793 17.0429 37.2552C16.4243 34.983 18.2271 31.3161 18.2271 31.3161L16.2962 28.8726C14.17 32.8345 10.9201 35.6227 10.5253 37.6024C10.1306 39.5821 13.5187 46.8447 13.5187 46.8447C14.283 49.0913 11.5592 52.6293 11.5592 52.6293C11.5592 52.6293 11.3057 52.2812 10.8996 51.6744M5.17061 38.1814C5.17061 38.1814 4.03204 43.0975 4.75428 46.3322M5.17061 38.1814C5.4707 43.1029 9.3281 49.3261 10.8996 51.6744M4.75428 46.3322C4.75428 46.3322 3.53678 57.3896 7.28106 55.8931C8.80797 55.2829 8.50809 53.7819 8.50809 53.7819M4.75428 46.3322C5.3797 49.1332 7.05164 52.2276 8.50809 53.7819M10.8996 51.6744C10.8996 51.6744 11.141 55.016 9.92253 54.7731C9.51602 54.692 9.02566 54.3342 8.50809 53.7819" stroke="#111111" stroke-linejoin="round"/>
    <path d="M173.112 39.1814C173.772 28.3458 167.32 2.0494 167.32 2.0494L155.282 6L158.756 15.6958C158.756 15.6958 155.802 22.3257 155.145 25.8846C153.976 32.2229 158.382 42.1184 158.382 42.1184C158.382 42.1184 160.743 40.0793 161.239 38.2552C161.858 35.983 160.055 32.3161 160.055 32.3161L161.986 29.8726C164.112 33.8345 167.362 36.6227 167.757 38.6024C168.152 40.5821 164.764 47.8447 164.764 47.8447C163.999 50.0913 166.723 53.6293 166.723 53.6293C166.723 53.6293 166.976 53.2812 167.383 52.6744C167.383 52.6744 167.141 56.016 168.36 55.7731C168.766 55.692 169.257 55.3342 169.774 54.7819C169.774 54.7819 169.474 56.2829 171.001 56.8931C174.745 58.3896 173.528 47.3322 173.528 47.3322C174.25 44.0975 173.112 39.1814 173.112 39.1814Z" fill="url(#paint1_linear_292_5596)"/>
    <path d="M173.112 39.1814C173.772 28.3458 167.32 2.0494 167.32 2.0494L155.282 6L158.756 15.6958C158.756 15.6958 155.802 22.3257 155.145 25.8846C153.976 32.2229 158.382 42.1184 158.382 42.1184C158.382 42.1184 160.743 40.0793 161.239 38.2552C161.858 35.983 160.055 32.3161 160.055 32.3161L161.986 29.8726C164.112 33.8345 167.362 36.6227 167.757 38.6024C168.152 40.5821 164.764 47.8447 164.764 47.8447C163.999 50.0913 166.723 53.6293 166.723 53.6293C166.723 53.6293 166.976 53.2812 167.383 52.6744M173.112 39.1814C173.112 39.1814 174.25 44.0975 173.528 47.3322M173.112 39.1814C172.812 44.1029 168.954 50.3261 167.383 52.6744M173.528 47.3322C173.528 47.3322 174.745 58.3896 171.001 56.8931C169.474 56.2829 169.774 54.7819 169.774 54.7819M173.528 47.3322C172.903 50.1332 171.231 53.2276 169.774 54.7819M167.383 52.6744C167.383 52.6744 167.141 56.016 168.36 55.7731C168.766 55.692 169.257 55.3342 169.774 54.7819" stroke="#111111" stroke-linejoin="round"/>
    <defs>
        <linearGradient id="paint0_linear_292_5596" x1="19.4986" y1="2.75146" x2="8.78377" y2="56.4874" gradientUnits="userSpaceOnUse">
            <stop stop-color="#9396A3"/>
            <stop offset="1" stop-color="#6A6B70"/>
        </linearGradient>
        <linearGradient id="paint1_linear_292_5596" x1="158.784" y1="3.75146" x2="169.498" y2="57.4874" gradientUnits="userSpaceOnUse">
            <stop stop-color="#9396A3"/>
            <stop offset="1" stop-color="#6A6B70"/>
        </linearGradient>
    </defs>
</svg>
