<svg width="74" height="97" viewBox="0 0 74 97" fill="none" xmlns="http://www.w3.org/2000/svg">
    <path d="M36.5006 1.64025C41.9882 0.243389 45.5 2.64068 45.5 2.64068C45.5 2.64068 52.767 0.430573 57.501 1.1406C67.502 2.64062 73.5 21.0772 73.5 36.6407C73.5 49.1406 70.002 66.7436 59.501 74.6406C50.0727 81.7309 31 82.6407 31 82.6407C31 82.6407 21.3464 86.007 16 89.6407C14 91 11.4 91.981 9 93C7.32317 93.712 5.73706 94.4505 4.5 95C2.98995 95.6708 0.5 96.5 0.5 96.5C0.5 96.5 9.00098 8.64025 36.5006 1.64025Z" fill="url(#paint0_linear_210_5865)"/>
    <path d="M16 89.6407C21.3464 86.007 31 82.6407 31 82.6407C31 82.6407 50.0727 81.7309 59.501 74.6406C70.002 66.7436 73.5 49.1406 73.5 36.6407C73.5 21.0772 67.502 2.64062 57.501 1.1406C52.767 0.430573 45.5 2.64068 45.5 2.64068C45.5 2.64068 41.9882 0.243389 36.5006 1.64025C9.00098 8.64025 0.5 96.5 0.5 96.5C0.5 96.5 2.98995 95.6708 4.5 95M16 89.6407C24.2163 79.1509 30.2681 74.5567 43 68M16 89.6407C14 91 11.4 91.981 9 93M24 74.6406C16.4689 81.6482 13.8313 86.0984 9 93M9 93C7.32317 93.712 5.73706 94.4505 4.5 95M4.5 95C12.8638 83.1066 18.1751 74.988 30 65.298C32.2437 63.4594 34.7219 61.5418 37.5 59.5" stroke="#111111" stroke-linecap="round" stroke-linejoin="round"/>
    <defs>
        <linearGradient id="paint0_linear_210_5865" x1="37" y1="1" x2="37" y2="96.5" gradientUnits="userSpaceOnUse">
            <stop stop-color="#9396A3"/>
            <stop offset="1" stop-color="#6A6B70"/>
        </linearGradient>
    </defs>
</svg>
