<svg width="169" height="64" viewBox="0 0 169 64" fill="none" xmlns="http://www.w3.org/2000/svg">
    <path d="M2.94859 43.2304C-0.168652 31.4481 1.16743 1.08594 1.16743 1.08594L14.081 3.35177L13.6355 14.2278C13.6355 14.2278 18.3601 20.8772 19.8699 24.6506C22.5587 31.3707 19.8699 43.2304 19.8699 43.2304C19.8699 43.2304 16.8127 41.5039 15.8622 39.6051C14.6781 37.2398 15.8622 32.8076 15.8622 32.8076L13.1904 30.5418C11.714 35.3695 8.73745 39.1519 8.73745 41.4178C8.73745 43.6836 14.081 50.9343 14.081 50.9343C15.4204 53.2395 13.1904 57.7318 13.1904 57.7318C13.1904 57.7318 12.8337 57.4043 12.2513 56.8254C12.2513 56.8254 13.2542 60.4508 11.8544 60.4508C11.3873 60.4508 10.7667 60.1645 10.0732 59.6701C10.0732 59.6701 10.7352 61.2566 9.18257 62.2634C5.3752 64.7325 4.2843 52.2938 4.2843 52.2938C2.77366 48.8918 2.94859 43.2304 2.94859 43.2304Z" fill="url(#paint0_linear_286_8535)"/>
    <path d="M2.94859 43.2304C-0.168652 31.4481 1.16743 1.08594 1.16743 1.08594L14.081 3.35177L13.6355 14.2278C13.6355 14.2278 18.3601 20.8772 19.8699 24.6506C22.5587 31.3707 19.8699 43.2304 19.8699 43.2304C19.8699 43.2304 16.8127 41.5039 15.8622 39.6051C14.6781 37.2398 15.8622 32.8076 15.8622 32.8076L13.1904 30.5418C11.714 35.3695 8.73745 39.1519 8.73745 41.4178C8.73745 43.6836 14.081 50.9343 14.081 50.9343C15.4204 53.2395 13.1904 57.7318 13.1904 57.7318C13.1904 57.7318 12.8337 57.4043 12.2513 56.8254M2.94859 43.2304C2.94859 43.2304 2.77366 48.8918 4.2843 52.2938M2.94859 43.2304C4.36442 48.5819 9.99753 54.5855 12.2513 56.8254M4.2843 52.2938C4.2843 52.2938 5.3752 64.7325 9.18257 62.2634C10.7352 61.2566 10.0732 59.6701 10.0732 59.6701M4.2843 52.2938C5.59245 55.2397 8.1215 58.2789 10.0732 59.6701M12.2513 56.8254C12.2513 56.8254 13.2542 60.4508 11.8544 60.4508C11.3873 60.4508 10.7667 60.1645 10.0732 59.6701" stroke="#111111" stroke-linejoin="round"/>
    <path d="M166.04 43.2304C169.157 31.4481 167.821 1.08594 167.821 1.08594L154.907 3.35177L155.353 14.2278C155.353 14.2278 150.628 20.8772 149.118 24.6506C146.43 31.3707 149.118 43.2304 149.118 43.2304C149.118 43.2304 152.176 41.5039 153.126 39.6051C154.31 37.2398 153.126 32.8076 153.126 32.8076L155.798 30.5418C157.274 35.3695 160.251 39.1519 160.251 41.4178C160.251 43.6836 154.907 50.9343 154.907 50.9343C153.568 53.2395 155.798 57.7318 155.798 57.7318C155.798 57.7318 156.155 57.4043 156.737 56.8254C156.737 56.8254 155.734 60.4508 157.134 60.4508C157.601 60.4508 158.222 60.1645 158.915 59.6701C158.915 59.6701 158.253 61.2566 159.806 62.2634C163.613 64.7325 164.704 52.2938 164.704 52.2938C166.215 48.8918 166.04 43.2304 166.04 43.2304Z" fill="url(#paint1_linear_286_8535)"/>
    <path d="M166.04 43.2304C169.157 31.4481 167.821 1.08594 167.821 1.08594L154.907 3.35177L155.353 14.2278C155.353 14.2278 150.628 20.8772 149.118 24.6506C146.43 31.3707 149.118 43.2304 149.118 43.2304C149.118 43.2304 152.176 41.5039 153.126 39.6051C154.31 37.2398 153.126 32.8076 153.126 32.8076L155.798 30.5418C157.274 35.3695 160.251 39.1519 160.251 41.4178C160.251 43.6836 154.907 50.9343 154.907 50.9343C153.568 53.2395 155.798 57.7318 155.798 57.7318C155.798 57.7318 156.155 57.4043 156.737 56.8254M166.04 43.2304C166.04 43.2304 166.215 48.8918 164.704 52.2938M166.04 43.2304C164.624 48.5819 158.991 54.5855 156.737 56.8254M164.704 52.2938C164.704 52.2938 163.613 64.7325 159.806 62.2634C158.253 61.2566 158.915 59.6701 158.915 59.6701M164.704 52.2938C163.396 55.2397 160.867 58.2789 158.915 59.6701M156.737 56.8254C156.737 56.8254 155.734 60.4508 157.134 60.4508C157.601 60.4508 158.222 60.1645 158.915 59.6701" stroke="#111111" stroke-linejoin="round"/>
    <defs>
        <linearGradient id="paint0_linear_286_8535" x1="10.9738" y1="1.08594" x2="10.9738" y2="62.5877" gradientUnits="userSpaceOnUse">
            <stop stop-color="#9396A3"/>
            <stop offset="1" stop-color="#6A6B70"/>
        </linearGradient>
        <linearGradient id="paint1_linear_286_8535" x1="158.014" y1="1.08594" x2="158.014" y2="62.5877" gradientUnits="userSpaceOnUse">
            <stop stop-color="#9396A3"/>
            <stop offset="1" stop-color="#6A6B70"/>
        </linearGradient>
    </defs>
</svg>
