<svg width="49" height="118" viewBox="0 0 49 118" fill="none" xmlns="http://www.w3.org/2000/svg">
    <path d="M43.7262 64.3279C39.2779 85.9296 32.5734 119.065 23.4528 117.039C11.5347 114.391 8.64298 86.2289 4.17875 64.3279C-0.327984 42.2183 1.1303 12.6298 5.18776 6.54778C10.1442 -0.881773 23.4528 1.48017 23.4528 1.48017C23.4528 1.48017 38.7732 -0.883024 43.7262 6.54881C49.8058 15.671 48.2801 42.2138 43.7262 64.3279Z" fill="#F4B43B"/>
    <path d="M43.7262 64.3279C39.2779 85.9296 32.5734 119.065 23.4528 117.039C11.5347 114.391 8.64298 86.2289 4.17875 64.3279C-0.327984 42.2183 1.1303 12.6298 5.18776 6.54778C10.1442 -0.881773 23.4528 1.48017 23.4528 1.48017C23.4528 1.48017 38.7732 -0.883024 43.7262 6.54881C49.8058 15.671 48.2801 42.2138 43.7262 64.3279Z" stroke="#111111" stroke-linejoin="round"/>
    <path d="M26.6172 20.8955V8.39107C26.6172 6.94124 27.9821 5.87903 29.3875 6.23512L39.8758 8.89252C40.7724 9.1197 41.4348 9.87811 41.5394 10.7971L43.0639 24.2013C43.2439 25.7842 41.7501 27.0375 40.2226 26.5852L28.2098 23.0281C27.2652 22.7484 26.6172 21.8806 26.6172 20.8955Z" fill="#F4B43B" stroke="#111111" stroke-linecap="round" stroke-linejoin="round"/>
    <path d="M21.0029 20.8955V8.39107C21.0029 6.94124 19.638 5.87903 18.2326 6.23512L7.74434 8.89252C6.84772 9.1197 6.18529 9.87811 6.08076 10.7971L4.55625 24.2013C4.37622 25.7842 5.87001 27.0375 7.39755 26.5852L19.4103 23.0281C20.3549 22.7484 21.0029 21.8806 21.0029 20.8955Z" fill="#F4B43B" stroke="#111111" stroke-linecap="round" stroke-linejoin="round"/>
    <path d="M25.4648 105.658V68.7872C25.4648 68.196 25.9441 67.7168 26.5352 67.7168H38.9444C39.6246 67.7168 40.1316 68.3463 39.9939 69.0125C36.7052 84.9268 35.833 95.5081 27.2787 106.317C26.6673 107.089 25.4648 106.643 25.4648 105.658Z" fill="#F4B43B" stroke="#111111" stroke-width="0.962527" stroke-linecap="round" stroke-linejoin="round"/>
    <path d="M22.4756 105.66V68.7891C22.4756 68.198 21.9964 67.7188 21.4052 67.7188H8.99604C8.3158 67.7188 7.80885 68.3483 7.94651 69.0145C11.2353 84.9288 12.1074 95.5101 20.6617 106.319C21.2731 107.091 22.4756 106.645 22.4756 105.66Z" fill="#F4B43B" stroke="#111111" stroke-width="0.962527" stroke-linecap="round" stroke-linejoin="round"/>
    <path d="M41.9975 61.0214V52.1831C41.9975 50.9547 41.0017 49.959 39.7734 49.959H27.8003C26.5719 49.959 25.5762 50.9547 25.5762 52.1831V61.0214C25.5762 62.2497 26.5719 63.2454 27.8003 63.2454H39.7734C41.0017 63.2454 41.9975 62.2497 41.9975 61.0214Z" fill="#F4B43B" stroke="#111111" stroke-linecap="round" stroke-linejoin="round"/>
    <path d="M23.1922 61.1971V52.3588C23.1922 51.1305 22.1964 50.1348 20.9681 50.1348H8.13619C6.90786 50.1348 5.91211 51.1305 5.91211 52.3588V61.1971C5.91211 62.4255 6.90786 63.4212 8.13619 63.4212H20.9681C22.1964 63.4212 23.1922 62.4255 23.1922 61.1971Z" fill="#F4B43B" stroke="#111111" stroke-linecap="round" stroke-linejoin="round"/>
    <path d="M27.4777 42.2542L25.5044 31.1453C25.2088 29.4812 26.804 28.1085 28.4054 28.649L40.7948 32.8306C41.5191 33.075 42.0671 33.6744 42.2459 34.4176L44.2626 42.7998C44.6244 44.3039 43.3782 45.7088 41.8417 45.529L29.409 44.0742C28.4342 43.9601 27.6494 43.2205 27.4777 42.2542Z" fill="#F4B43B" stroke="#111111" stroke-linecap="round" stroke-linejoin="round"/>
    <path d="M21.6923 42.1284L23.478 30.9879C23.7455 29.3191 22.1273 27.9735 20.5353 28.5409L8.21817 32.9308C7.49807 33.1875 6.96025 33.7959 6.794 34.5421L4.91903 42.9571C4.58258 44.4671 5.8523 45.8508 7.38559 45.6451L19.7919 43.9808C20.7647 43.8503 21.5369 43.0976 21.6923 42.1284Z" fill="#F4B43B" stroke="#111111" stroke-linecap="round" stroke-linejoin="round"/>
</svg>
