<svg width="142" height="53" viewBox="0 0 142 53" fill="none" xmlns="http://www.w3.org/2000/svg">
    <path d="M19.6928 0.745767L28.8615 5.74684C29.4897 6.08954 29.8863 6.7304 29.8834 7.44606C29.8655 11.862 29.4029 27.9711 23.795 36.711C19.7901 42.9527 10.8709 49.0049 6.72816 51.6031C5.6245 52.2953 4.21477 51.7239 3.92257 50.4543C2.14554 42.7333 -2.28347 18.9739 7.57624 8.32813C10.4361 5.24023 15.6381 2.02482 17.7732 0.768015C18.3638 0.420392 19.0912 0.417624 19.6928 0.745767Z" fill="#F4B43B" stroke="#111111" stroke-linejoin="round"/>
    <path d="M123.074 0.745767L113.905 5.74684C113.277 6.08954 112.88 6.7304 112.883 7.44606C112.901 11.862 113.364 27.9711 118.972 36.711C122.977 42.9527 131.896 49.0049 136.038 51.6031C137.142 52.2953 138.552 51.7239 138.844 50.4543C140.621 42.7333 145.05 18.9739 135.19 8.32813C132.33 5.24023 127.128 2.02482 124.993 0.768015C124.403 0.420392 123.675 0.417624 123.074 0.745767Z" fill="#F4B43B" stroke="#111111" stroke-linejoin="round"/>
</svg>
