<svg width="130" height="197" viewBox="0 0 130 197" fill="none" xmlns="http://www.w3.org/2000/svg">
    <path d="M83.8258 44.9254C82.449 40.4476 82.6509 29.8835 82.6509 29.8835L110.612 12.8515C110.612 12.8515 109.814 29.0029 111.42 39.2121C112.44 45.7022 113.896 47.1103 115.305 53.5272C116.835 60.4941 118.204 72.8718 118.204 72.8718C118.204 72.8718 122.096 92.0545 121.074 104.36C119.759 120.181 115.046 154.326 115.046 154.326C115.046 154.326 114.378 164.603 116.335 170.72C118.875 178.663 126.102 182.609 128.598 188.202C129.694 190.66 128.59 191.962 125.25 194.203C122.036 196.36 112.517 196.83 105.679 194.203C102.901 193.136 101.711 191.087 100.983 188.202C100.261 185.341 100.408 175.936 100.983 168.11C101.411 162.273 102.895 153.245 102.895 153.245C102.895 153.245 93.0543 123.862 89.9255 104.36C86.6927 84.2095 88.6571 60.4569 87.0274 52.1821C86.3198 48.5894 84.9019 48.4254 83.8258 44.9254Z" fill="url(#paint0_linear_292_5591)"/>
    <path d="M83.8258 44.9254C82.449 40.4476 82.6509 29.8835 82.6509 29.8835L110.612 12.8515C110.612 12.8515 109.814 29.0029 111.42 39.2121C112.44 45.7022 113.896 47.1103 115.305 53.5272C116.835 60.4941 118.204 72.8718 118.204 72.8718C118.204 72.8718 122.096 92.0545 121.074 104.36C119.759 120.181 115.046 154.326 115.046 154.326C115.046 154.326 114.378 164.603 116.335 170.72C118.875 178.663 126.102 182.609 128.598 188.202C129.694 190.66 128.59 191.962 125.25 194.203C122.036 196.36 112.517 196.83 105.679 194.203C102.901 193.136 101.711 191.087 100.983 188.202C100.261 185.341 100.408 175.936 100.983 168.11C101.411 162.273 102.895 153.245 102.895 153.245C102.895 153.245 93.0543 123.862 89.9255 104.36C86.6927 84.2095 88.6571 60.4569 87.0274 52.1821C86.3198 48.5894 84.9019 48.4254 83.8258 44.9254Z" stroke="#111111" stroke-linejoin="round"/>
    <path d="M46.3744 44.9166C47.7512 40.4388 47.9135 32.0879 47.9135 32.0879L19.5963 12.8984C19.5963 12.8984 20.3859 28.9941 18.7806 39.2033C17.7601 45.6935 16.3047 47.1015 14.8954 53.5185C13.3653 60.4853 11.9965 72.863 11.9965 72.863C11.9965 72.863 8.10376 92.0457 9.12627 104.351C10.4409 120.173 15.1542 154.317 15.1542 154.317C15.1542 154.317 15.8222 164.594 13.8656 170.711C11.3248 178.654 4.09827 182.6 1.60269 188.193C0.505832 190.651 1.61061 191.953 4.95016 194.194C8.16447 196.351 17.6833 196.821 24.5208 194.194C27.2989 193.127 28.4894 191.079 29.2175 188.193C29.9393 185.333 29.7919 175.927 29.2175 168.102C28.789 162.264 27.3056 153.236 27.3056 153.236C27.3056 153.236 37.1459 123.853 40.2747 104.351C43.5075 84.2007 41.5431 60.4481 43.1728 52.1734C43.8804 48.5807 45.2983 48.4166 46.3744 44.9166Z" fill="url(#paint1_linear_292_5591)"/>
    <path d="M46.3744 44.9166C47.7512 40.4388 47.9135 32.0879 47.9135 32.0879L19.5963 12.8984C19.5963 12.8984 20.3859 28.9941 18.7806 39.2033C17.7601 45.6935 16.3047 47.1015 14.8954 53.5185C13.3653 60.4853 11.9965 72.863 11.9965 72.863C11.9965 72.863 8.10376 92.0457 9.12627 104.351C10.4409 120.173 15.1542 154.317 15.1542 154.317C15.1542 154.317 15.8222 164.594 13.8656 170.711C11.3248 178.654 4.09827 182.6 1.60269 188.193C0.505832 190.651 1.61061 191.953 4.95016 194.194C8.16447 196.351 17.6833 196.821 24.5208 194.194C27.2989 193.127 28.4894 191.079 29.2175 188.193C29.9393 185.333 29.7919 175.927 29.2175 168.102C28.789 162.264 27.3056 153.236 27.3056 153.236C27.3056 153.236 37.1459 123.853 40.2747 104.351C43.5075 84.2007 41.5431 60.4481 43.1728 52.1734C43.8804 48.5807 45.2983 48.4166 46.3744 44.9166Z" stroke="#111111" stroke-linejoin="round"/>
    <path d="M18.2279 119.796C19.4908 135.676 22.2153 160.392 22.2153 160.392C22.2153 160.392 26.099 133.109 28.167 115.575C29.12 107.494 28.2319 102.691 30.4678 94.8673C33.0378 85.8752 42.323 73.6227 42.323 73.6227C42.323 73.6227 41.8864 61.1689 36.7429 61.1913C35.1153 61.1984 32.7687 62.4463 32.7687 62.4463C32.7687 62.4463 31.2153 55.1068 26.6905 54.4928C24.2297 54.1589 22.0229 54.7689 20.1141 55.9903C17.2706 57.8099 15.0882 60.9863 13.7119 64.4201C11.4602 70.0377 14.8422 74.7653 15.8255 80.8542C18.2545 95.8959 17.02 104.607 18.2279 119.796Z" fill="url(#paint2_linear_292_5591)"/>
    <path d="M36.7429 61.1913C35.1153 61.1984 32.7687 62.4463 32.7687 62.4463C32.7687 62.4463 31.2153 55.1068 26.6905 54.4928C24.2297 54.1589 22.0229 54.7689 20.1141 55.9903M36.7429 61.1913C41.8864 61.1689 42.323 73.6227 42.323 73.6227C42.323 73.6227 33.0378 85.8752 30.4678 94.8673C28.2319 102.691 29.12 107.494 28.167 115.575C26.099 133.109 22.2153 160.392 22.2153 160.392C22.2153 160.392 19.4908 135.676 18.2279 119.796C17.02 104.607 18.2545 95.8959 15.8255 80.8542C14.8422 74.7653 11.4602 70.0377 13.7119 64.4201C15.0882 60.9863 17.2706 57.8099 20.1141 55.9903M36.7429 61.1913C37.044 57.2627 36.932 55.0495 35.136 51.1679M25.6627 44.4883C22.4936 48.3821 21.2013 50.8335 20.1141 55.9903" stroke="#111111" stroke-linecap="round" stroke-linejoin="round"/>
    <path d="M111.972 119.796C110.709 135.676 107.985 160.392 107.985 160.392C107.985 160.392 104.101 133.109 102.033 115.575C101.08 107.494 101.968 102.691 99.7323 94.8673C97.1624 85.8752 87.8772 73.6227 87.8772 73.6227C87.8772 73.6227 88.3138 61.1689 93.4573 61.1913C95.0849 61.1984 97.4315 62.4463 97.4315 62.4463C97.4315 62.4463 98.9849 55.1068 103.51 54.4928C105.971 54.1589 108.177 54.7689 110.086 55.9903C112.93 57.8099 115.112 60.9863 116.488 64.4201C118.74 70.0377 115.358 74.7653 114.375 80.8542C111.946 95.8959 113.18 104.607 111.972 119.796Z" fill="url(#paint3_linear_292_5591)"/>
    <path d="M93.4573 61.1913C95.0849 61.1984 97.4315 62.4463 97.4315 62.4463C97.4315 62.4463 98.9849 55.1068 103.51 54.4928C105.971 54.1589 108.177 54.7689 110.086 55.9903M93.4573 61.1913C88.3138 61.1689 87.8772 73.6227 87.8772 73.6227C87.8772 73.6227 97.1624 85.8752 99.7324 94.8673C101.968 102.691 101.08 107.494 102.033 115.575C104.101 133.109 107.985 160.392 107.985 160.392C107.985 160.392 110.709 135.676 111.972 119.796C113.18 104.607 111.946 95.8959 114.375 80.8542C115.358 74.7653 118.74 70.0377 116.488 64.4201C115.112 60.9863 112.93 57.8099 110.086 55.9903M93.4573 61.1913C93.1562 57.2627 93.2682 55.0495 95.0642 51.1679M104.537 44.4883C107.707 48.3821 108.999 50.8335 110.086 55.9903" stroke="#111111" stroke-linecap="round" stroke-linejoin="round"/>
    <path d="M42.8335 39.2656C47.3816 38.1817 48.3594 33.1863 48.3594 33.1863L43.6243 1.4209L35.8433 11.0076L31.5283 28.1945C31.5283 28.1945 37.0846 40.6357 42.8335 39.2656Z" fill="url(#paint4_linear_292_5591)"/>
    <path d="M42.8335 39.2656C47.3816 38.1817 48.3594 33.1863 48.3594 33.1863L43.6243 1.4209L35.8433 11.0076L31.5283 28.1945C31.5283 28.1945 37.0846 40.6357 42.8335 39.2656Z" stroke="#111111" stroke-linejoin="round"/>
    <path d="M88.5864 39.2656C83.9897 38.1701 83.4124 33.1863 83.4124 33.1863L87.7956 1.4209L95.5766 11.0076L99.8916 28.1945C99.8916 28.1945 94.3354 40.6357 88.5864 39.2656Z" fill="url(#paint5_linear_292_5591)"/>
    <path d="M88.5864 39.2656C83.9897 38.1701 83.4124 33.1863 83.4124 33.1863L87.7956 1.4209L95.5766 11.0076L99.8916 28.1945C99.8916 28.1945 94.3354 40.6357 88.5864 39.2656Z" stroke="#111111" stroke-linejoin="round"/>
    <defs>
        <linearGradient id="paint0_linear_292_5591" x1="105.824" y1="12.8516" x2="105.824" y2="196.001" gradientUnits="userSpaceOnUse">
            <stop stop-color="#9396A3"/>
            <stop offset="1" stop-color="#6A6B70"/>
        </linearGradient>
        <linearGradient id="paint1_linear_292_5591" x1="24.5534" y1="12.8984" x2="24.5534" y2="195.993" gradientUnits="userSpaceOnUse">
            <stop stop-color="#9396A3"/>
            <stop offset="1" stop-color="#6A6B70"/>
        </linearGradient>
        <linearGradient id="paint2_linear_292_5591" x1="27.638" y1="44.4883" x2="27.638" y2="160.392" gradientUnits="userSpaceOnUse">
            <stop stop-color="#9396A3"/>
            <stop offset="1" stop-color="#6A6B70"/>
        </linearGradient>
        <linearGradient id="paint3_linear_292_5591" x1="102.562" y1="44.4883" x2="102.562" y2="160.392" gradientUnits="userSpaceOnUse">
            <stop stop-color="#9396A3"/>
            <stop offset="1" stop-color="#6A6B70"/>
        </linearGradient>
        <linearGradient id="paint4_linear_292_5591" x1="39.9438" y1="1.4209" x2="39.9438" y2="39.371" gradientUnits="userSpaceOnUse">
            <stop stop-color="#9396A3"/>
            <stop offset="1" stop-color="#6A6B70"/>
        </linearGradient>
        <linearGradient id="paint5_linear_292_5591" x1="91.652" y1="1.4209" x2="91.652" y2="39.371" gradientUnits="userSpaceOnUse">
            <stop stop-color="#9396A3"/>
            <stop offset="1" stop-color="#6A6B70"/>
        </linearGradient>
    </defs>
</svg>
