<svg width="133" height="40" viewBox="0 0 133 40" fill="none" xmlns="http://www.w3.org/2000/svg">
    <path d="M17.775 1.81501C26.3888 -2.49485 37.0416 5.87807 37.0416 5.87807C37.0416 5.87807 27.9169 12.9692 20.8212 24.1196C16.4943 30.9191 1.56394 39.3246 1.56394 39.3246C1.04299 34.5153 1.71313 9.85155 17.775 1.81501Z" fill="#4CD964"/>
    <path d="M17.775 1.81501C26.3888 -2.49485 37.0416 5.87807 37.0416 5.87807C37.0416 5.87807 27.9169 12.9692 20.8212 24.1196C16.4943 30.9191 1.56394 39.3246 1.56394 39.3246C1.04299 34.5153 1.71313 9.85155 17.775 1.81501Z" stroke="#111111" stroke-linejoin="round"/>
    <path d="M116.004 1.81501C107.391 -2.49485 96.7377 5.87807 96.7377 5.87807C96.7377 5.87807 105.862 12.9692 112.958 24.1196C117.285 30.9191 132.215 39.3246 132.215 39.3246C132.736 34.5153 132.066 9.85155 116.004 1.81501Z" fill="#4CD964"/>
    <path d="M116.004 1.81501C107.391 -2.49485 96.7377 5.87807 96.7377 5.87807C96.7377 5.87807 105.862 12.9692 112.958 24.1196C117.285 30.9191 132.215 39.3246 132.215 39.3246C132.736 34.5153 132.066 9.85155 116.004 1.81501Z" stroke="#111111" stroke-linejoin="round"/>
</svg>
