<svg width="42" height="54" viewBox="0 0 42 54" fill="none" xmlns="http://www.w3.org/2000/svg">
    <path d="M21.593 53.4763C34.3889 53.342 39.3503 33.3738 41.1285 22.157C41.8363 17.6927 39.3491 13.4515 35.2093 11.6368C29.0994 8.95849 19.5496 4.96813 9.33485 1.44656C0.580322 -1.57158 0.859156 20.0102 0.965604 23.6103C0.975818 23.9558 1.0046 24.2676 1.06063 24.6086C1.69492 28.469 6.41295 53.6355 21.593 53.4763Z" fill="url(#paint0_linear_210_5774)"/>
    <path d="M21.593 53.4763C34.3889 53.342 39.3503 33.3738 41.1285 22.157C41.8363 17.6927 39.3491 13.4515 35.2093 11.6368C29.0994 8.95849 19.5496 4.96813 9.33485 1.44656C0.580322 -1.57158 0.859156 20.0102 0.965604 23.6103C0.975818 23.9558 1.0046 24.2676 1.06063 24.6086C1.69492 28.469 6.41295 53.6355 21.593 53.4763Z" stroke="#111111" stroke-linejoin="round"/>
    <defs>
        <linearGradient id="paint0_linear_210_5774" x1="21.4841" y1="1.1582" x2="21.4841" y2="53.477" gradientUnits="userSpaceOnUse">
            <stop stop-color="#9396A3"/>
            <stop offset="1" stop-color="#6A6B70"/>
        </linearGradient>
    </defs>
</svg>
