<svg width="69" height="97" viewBox="0 0 69 97" fill="none" xmlns="http://www.w3.org/2000/svg">
    <path d="M34.2807 2.84543C34.2807 2.84543 36.7088 2.11007 38.7698 2.11015C53.7835 2.11075 64.2181 18.9416 60.492 48.4446C58.2777 65.9773 67.8683 93.0914 67.8683 93.0914L1.09473 96.3284C1.09473 96.3284 3.63498 62.2962 5.14181 40.4814C6.33858 23.1555 15.1262 -1.08122 29.0636 1.14277C31.2325 1.48887 34.2807 2.84543 34.2807 2.84543Z" fill="url(#paint0_linear_210_5753)"/>
    <path d="M34.2807 2.84543C34.2807 2.84543 36.7088 2.11007 38.7698 2.11015C53.7835 2.11075 64.2181 18.9416 60.492 48.4446C58.2777 65.9773 67.8683 93.0914 67.8683 93.0914L1.09473 96.3284C1.09473 96.3284 3.63498 62.2962 5.14181 40.4814C6.33858 23.1555 15.1262 -1.08122 29.0636 1.14277C31.2325 1.48887 34.2807 2.84543 34.2807 2.84543Z" stroke="#111111" stroke-linejoin="round"/>
    <defs>
        <linearGradient id="paint0_linear_210_5753" x1="34.4815" y1="1" x2="34.4815" y2="96.3284" gradientUnits="userSpaceOnUse">
            <stop stop-color="#9396A3"/>
            <stop offset="1" stop-color="#6A6B70"/>
        </linearGradient>
    </defs>
</svg>
