<svg width="75" height="82" viewBox="0 0 75 82" fill="none" xmlns="http://www.w3.org/2000/svg">
    <path d="M24.2471 1.39941H53.6436C52.2103 15.9339 50.8351 24.2574 45.5342 39.919C56.4429 34.0893 62.576 32.6297 73.9171 33.8369L69.8624 36.878C69.8624 36.878 51.8965 39.8705 45.5342 47.0147C38.3124 55.1241 41.4795 81.4795 41.4795 81.4795H35.3975C35.3975 81.4795 39.7789 55.1892 30.3291 44.9873C23.4339 37.5433 8.02833 36.878 8.02833 36.878L0.932617 33.8369C11.3757 32.4147 21.2121 32.6379 31.3428 39.919C26.3198 23.3755 25.1917 15.1993 24.2471 1.39941Z" fill="url(#paint0_linear_210_5767)"/>
    <path d="M24.2471 1.39941H53.6436C52.2103 15.9339 50.8351 24.2574 45.5342 39.919C56.4429 34.0893 62.576 32.6297 73.9171 33.8369L69.8624 36.878C69.8624 36.878 51.8965 39.8705 45.5342 47.0147C38.3124 55.1241 41.4795 81.4795 41.4795 81.4795H35.3975C35.3975 81.4795 39.7789 55.1892 30.3291 44.9873C23.4339 37.5433 8.02833 36.878 8.02833 36.878L0.932617 33.8369C11.3757 32.4147 21.2121 32.6379 31.3428 39.919C26.3198 23.3755 25.1917 15.1993 24.2471 1.39941Z" stroke="#111111" stroke-linejoin="round"/>
    <defs>
        <linearGradient id="paint0_linear_210_5767" x1="37.4248" y1="1.39941" x2="37.4248" y2="81.4795" gradientUnits="userSpaceOnUse">
            <stop stop-color="#9396A3"/>
            <stop offset="1" stop-color="#6A6B70"/>
        </linearGradient>
    </defs>
</svg>
