<svg width="99" height="196" viewBox="0 0 99 196" fill="none" xmlns="http://www.w3.org/2000/svg">
    <path d="M6.8955 26.8096C34.7435 25.6806 33.1283 16.4434 33.251 1.46777H61.6299C61.6299 1.46777 60.441 13.7 66.6983 20.7276C75.4846 30.5954 98.1221 28.8369 98.1221 28.8369C98.1221 28.8369 93.3087 65.6632 83.9307 90.671C80.8897 98.7804 79.1898 110.46 79.876 120.067C80.8897 134.259 94.0675 163.655 94.0675 163.655C77.4283 168.378 57.5752 188.168 54.5342 192.038C51.4932 195.908 43.3838 195.539 40.3428 192.038C37.3018 188.537 17.3004 168.671 0.80957 163.655C0.80957 163.655 15.7048 135.32 16.0148 118.04C16.1875 108.41 11.9601 93.712 11.9601 93.712C-0.32328 46.5322 3.58878 54.2353 6.8955 26.8096Z" fill="#F4B43B" stroke="#111111" stroke-linejoin="round"/>
</svg>
