<svg width="101" height="128" viewBox="0 0 101 128" fill="none" xmlns="http://www.w3.org/2000/svg">
    <path d="M30.1262 91.4075C23.9029 99.3496 20.7079 104.847 17.0435 121.834L8.51458 107.047L2.54297 45.9141L11.9269 30.5596L30.1262 91.4075Z" fill="#F4B43B" stroke="#111111" stroke-linejoin="round"/>
    <path d="M1.08105 48.1155L4.98441 43.8145C5.37958 77.1044 7.5842 93.8978 15.2275 120.186C15.2275 120.186 7.89316 117.109 6.10013 112.921C2.19236 103.794 1.08105 48.1155 1.08105 48.1155Z" fill="#F4B43B"/>
    <path d="M1.08105 48.1155L4.98441 43.8145C5.37958 77.1044 7.5842 93.8978 15.2275 120.186C15.2275 120.186 7.89316 117.109 6.10013 112.921C2.19236 103.794 1.08105 48.1155 1.08105 48.1155Z" stroke="#111111" stroke-linejoin="round"/>
    <path d="M1.05571 49.7219C0.0893874 11.5741 2.49503 5.40984 8.15141 1.34473L13.9581 5.2155C13.9581 5.2155 16.2529 22.8298 12.3454 32.9516C9.50206 40.3168 1.05571 49.7219 1.05571 49.7219Z" fill="#F4B43B"/>
    <path d="M1.05571 49.7219C0.0893874 11.5741 2.49503 5.40984 8.15141 1.34473L13.9581 5.2155C13.9581 5.2155 16.2529 22.8298 12.3454 32.9516C9.50206 40.3168 1.05571 49.7219 1.05571 49.7219Z" stroke="#111111" stroke-linejoin="round"/>
    <path d="M23.894 83.9461C30.5544 102.476 32.8661 126.642 32.8661 126.642C32.8661 126.642 44.6362 89.0392 45.5581 62.2817C45.9656 50.4533 44.5064 31.9935 44.5064 31.9935C40.2855 15.8283 32.7667 10.4418 12.5363 5.70117C12.5363 5.70117 9.25672 37.1459 14.6393 55.3407C17.776 65.9439 20.1538 73.5404 23.894 83.9461Z" fill="#F4B43B"/>
    <path d="M23.894 83.9461C30.5544 102.476 32.8661 126.642 32.8661 126.642C32.8661 126.642 44.6362 89.0392 45.5581 62.2817C45.9656 50.4533 44.5064 31.9935 44.5064 31.9935C40.2855 15.8283 32.7667 10.4418 12.5363 5.70117C12.5363 5.70117 9.25672 37.1459 14.6393 55.3407C17.776 65.9439 20.1538 73.5404 23.894 83.9461Z" stroke="#111111" stroke-linejoin="round"/>
    <path d="M70.3553 91.4075C76.5786 99.3496 79.7736 104.847 83.438 121.834L91.9669 107.047L97.9385 45.9141L88.5546 30.5596L70.3553 91.4075Z" fill="#F4B43B" stroke="#111111" stroke-linejoin="round"/>
    <path d="M99.3994 48.1155L95.4961 43.8145C95.1009 77.1044 92.8963 93.8978 85.2529 120.186C85.2529 120.186 92.5873 117.109 94.3803 112.921C98.2881 103.794 99.3994 48.1155 99.3994 48.1155Z" fill="#F4B43B"/>
    <path d="M99.3994 48.1155L95.4961 43.8145C95.1009 77.1044 92.8963 93.8978 85.2529 120.186C85.2529 120.186 92.5873 117.109 94.3803 112.921C98.2881 103.794 99.3994 48.1155 99.3994 48.1155Z" stroke="#111111" stroke-linejoin="round"/>
    <path d="M99.4257 49.7219C100.392 11.5741 97.9864 5.40984 92.33 1.34473L86.5234 5.2155C86.5234 5.2155 84.2285 22.8298 88.1361 32.9516C90.9794 40.3168 99.4257 49.7219 99.4257 49.7219Z" fill="#F4B43B"/>
    <path d="M99.4257 49.7219C100.392 11.5741 97.9864 5.40984 92.33 1.34473L86.5234 5.2155C86.5234 5.2155 84.2285 22.8298 88.1361 32.9516C90.9794 40.3168 99.4257 49.7219 99.4257 49.7219Z" stroke="#111111" stroke-linejoin="round"/>
    <path d="M76.5875 83.9461C69.9271 102.476 68.8494 126.953 68.8494 126.953C68.8494 126.953 55.8452 89.0392 54.9233 62.2817C54.5158 50.4533 55.975 31.9935 55.975 31.9935C66.0014 11.8743 73.3172 7.38368 87.9452 5.70117C87.9452 5.70117 91.2247 37.1459 85.8422 55.3407C82.7054 65.9439 80.3276 73.5404 76.5875 83.9461Z" fill="#F4B43B"/>
    <path d="M76.5875 83.9461C69.9271 102.476 68.8494 126.953 68.8494 126.953C68.8494 126.953 55.8452 89.0392 54.9233 62.2817C54.5158 50.4533 55.975 31.9935 55.975 31.9935C66.0014 11.8743 73.3172 7.38368 87.9452 5.70117C87.9452 5.70117 91.2247 37.1459 85.8422 55.3407C82.7054 65.9439 80.3276 73.5404 76.5875 83.9461Z" stroke="#111111" stroke-linejoin="round"/>
</svg>
