<svg width="20" height="20" viewBox="0 0 20 20" fill="none" xmlns="http://www.w3.org/2000/svg">
    <path d="M16.7969 7.42187C16.7969 3.67422 13.7477 0.625 10 0.625C6.25234 0.625 3.20312 3.67422 3.20312 7.42187C3.20312 10.8785 5.79687 13.741 9.14062 14.1644V15.3906H6.875V17.1094H9.14062V19.375H10.8594V17.1094H13.125V15.3906H10.8594V14.1644C14.2031 13.741 16.7969 10.8785 16.7969 7.42187ZM4.92187 7.42187C4.92187 4.62187 7.2 2.34375 10 2.34375C12.8 2.34375 15.0781 4.62187 15.0781 7.42187C15.0781 10.2219 12.8 12.5 10 12.5C7.2 12.5 4.92187 10.2219 4.92187 7.42187Z" fill="#007DD9"/>
</svg>
