<svg width="25" height="24" viewBox="0 0 25 24" fill="none" xmlns="http://www.w3.org/2000/svg">
    <path fill-rule="evenodd" clip-rule="evenodd" d="M21.14 12.2042C21.14 11.566 21.0827 10.9524 20.9763 10.3633H12.5V13.8446H17.3436C17.135 14.9696 16.5009 15.9228 15.5477 16.561V18.8192H18.4563C20.1582 17.2524 21.14 14.9451 21.14 12.2042Z" fill="#4285F4"/>
    <path fill-rule="evenodd" clip-rule="evenodd" d="M12.4997 20.9999C14.9297 20.9999 16.967 20.194 18.4561 18.8195L15.5475 16.5613C14.7416 17.1013 13.7106 17.4204 12.4997 17.4204C10.1557 17.4204 8.17157 15.8372 7.46384 13.71H4.45703V16.0418C5.93794 18.9831 8.98157 20.9999 12.4997 20.9999Z" fill="#34A853"/>
    <path fill-rule="evenodd" clip-rule="evenodd" d="M7.46408 13.7098C7.28408 13.1698 7.18181 12.593 7.18181 11.9998C7.18181 11.4066 7.28408 10.8298 7.46408 10.2898V7.95801H4.45727C3.84773 9.173 3.5 10.5475 3.5 11.9998C3.5 13.4521 3.84773 14.8266 4.45727 16.0416L7.46408 13.7098Z" fill="#FBBC05"/>
    <path fill-rule="evenodd" clip-rule="evenodd" d="M12.4997 6.57954C13.8211 6.57954 15.0075 7.03363 15.9402 7.92544L18.5215 5.34409C16.9629 3.89182 14.9256 3 12.4997 3C8.98156 3 5.93794 5.01681 4.45703 7.95817L7.46384 10.29C8.17157 8.16272 10.1557 6.57954 12.4997 6.57954Z" fill="#EA4335"/>
</svg>
