<svg width="32" height="32" viewBox="0 0 32 32" fill="none" xmlns="http://www.w3.org/2000/svg">
    <circle cx="16" cy="16" r="16" fill="white"/>
    <g clip-path="url(#clip0_446_7480)">
        <path d="M19.333 9.33325H12.6663C10.8254 9.33325 9.33301 10.8256 9.33301 12.6666V19.3333C9.33301 21.1742 10.8254 22.6666 12.6663 22.6666H19.333C21.174 22.6666 22.6663 21.1742 22.6663 19.3333V12.6666C22.6663 10.8256 21.174 9.33325 19.333 9.33325Z" stroke="#1E1F23" stroke-linecap="round" stroke-linejoin="round"/>
        <path d="M18.6668 15.58C18.7491 16.1348 18.6543 16.7014 18.396 17.1993C18.1376 17.6972 17.7289 18.1009 17.2279 18.3531C16.7269 18.6052 16.1591 18.693 15.6053 18.6039C15.0515 18.5148 14.54 18.2533 14.1434 17.8567C13.7467 17.4601 13.4853 16.9485 13.3962 16.3948C13.3071 15.841 13.3948 15.2732 13.647 14.7722C13.8992 14.2712 14.3029 13.8625 14.8008 13.6041C15.2987 13.3458 15.8653 13.251 16.4201 13.3333C16.9861 13.4172 17.51 13.6809 17.9146 14.0855C18.3192 14.4901 18.5829 15.014 18.6668 15.58Z" stroke="#1E1F23" stroke-linecap="round" stroke-linejoin="round"/>
        <path d="M19.667 12.3333H19.6737" stroke="#1E1F23" stroke-linecap="round" stroke-linejoin="round"/>
    </g>
    <defs>
        <clipPath id="clip0_446_7480">
            <rect width="16" height="16" fill="white" transform="translate(8 8)"/>
        </clipPath>
    </defs>
</svg>
