<svg width="20" height="20" viewBox="0 0 20 20" fill="none" xmlns="http://www.w3.org/2000/svg">
    <path d="M12.8912 1.87402V3.59277H15.1916L12.8326 5.95176C10.1686 3.88691 6.30918 4.07676 3.86621 6.5209C1.21621 9.17129 1.21621 13.483 3.86777 16.1318C5.14338 17.4036 6.87118 18.1178 8.67246 18.1178C10.4737 18.1178 12.2015 17.4036 13.4771 16.1318C15.9213 13.6873 16.1111 9.82949 14.0463 7.16543L16.4068 4.80801V7.1084H18.1256V1.87402H12.8912ZM12.2631 14.9178C11.3101 15.8688 10.0188 16.4029 8.67246 16.4029C7.32614 16.4029 6.03481 15.8688 5.08184 14.9178C3.10176 12.9381 3.10176 9.71621 5.08184 7.73652C7.06191 5.75684 10.2834 5.75644 12.2631 7.73652C14.2428 9.7166 14.2432 12.9381 12.2631 14.9178Z" fill="#007DD9"/>
</svg>
