<svg width="32" height="32" viewBox="0 0 32 32" fill="none" xmlns="http://www.w3.org/2000/svg">
    <circle cx="16" cy="16" r="16" fill="white"/>
    <path d="M23.0264 12.2801C22.9472 11.9637 22.7859 11.6738 22.5588 11.4397C22.3317 11.2056 22.0469 11.0355 21.7331 10.9467C20.5864 10.6667 15.9997 10.6667 15.9997 10.6667C15.9997 10.6667 11.4131 10.6667 10.2664 10.9734C9.95256 11.0622 9.66771 11.2322 9.44063 11.4664C9.21354 11.7005 9.05226 11.9904 8.97306 12.3067C8.76321 13.4705 8.66055 14.651 8.6664 15.8334C8.65892 17.0248 8.76158 18.2143 8.97306 19.3867C9.06037 19.6933 9.22527 19.9722 9.45183 20.1964C9.67838 20.4206 9.95894 20.5826 10.2664 20.6667C11.4131 20.9734 15.9997 20.9734 15.9997 20.9734C15.9997 20.9734 20.5864 20.9734 21.7331 20.6667C22.0469 20.578 22.3317 20.4079 22.5588 20.1738C22.7859 19.9397 22.9472 19.6498 23.0264 19.3334C23.2346 18.1785 23.3373 17.007 23.3331 15.8334C23.3405 14.6421 23.2379 13.4525 23.0264 12.2801V12.2801Z" stroke="#1E1F23" stroke-linecap="round" stroke-linejoin="round"/>
    <path d="M14.5 18.0133L18.3333 15.8333L14.5 13.6533V18.0133Z" stroke="#1E1F23" stroke-linecap="round" stroke-linejoin="round"/>
</svg>
