<svg width="256" height="256" viewBox="0 0 256 256" fill="none" xmlns="http://www.w3.org/2000/svg">
  <g clip-path="url(#clip0_410_19045)">
    <rect width="256" height="256" rx="64" fill="white"/>
    <rect width="256" height="256" fill="url(#paint0_radial_410_19045)"/>
    <ellipse cx="121.5" cy="136" rx="129.5" ry="128" fill="url(#paint1_radial_410_19045)" fill-opacity="0.2"/>
    <path d="M132.246 60.1633C132.246 60.1633 142.246 65.6641 141.246 77.6633C140.686 84.3843 135.827 89.6877 134.746 93.6633C133.665 97.6389 133.993 99.6347 137.746 102.163L157.746 109.663C157.746 109.663 165.332 108.674 168.246 111.663C171.272 114.768 169.746 122.663 169.746 122.663C169.746 122.663 174.754 122.938 177.246 124.663C181.921 127.9 181.246 138.663 181.246 138.663C181.246 138.663 187.547 144.291 191.623 148.663C197.766 155.254 203.123 168.663 203.123 168.663C203.123 168.663 209.098 160.125 211.246 162.663C212.765 164.458 210.746 168.663 210.746 168.663C210.746 168.663 214.489 168.349 215.746 166.663C217.185 164.734 213.802 161.919 215.746 160.5C218.153 158.743 220.246 166.663 220.246 166.663C220.246 166.663 220.838 170.492 215.746 172.163C209.136 174.333 203.529 175.124 193.623 168.663C183.717 162.202 177.785 160.746 172.246 148.163C165.934 147.976 162.912 144.604 157.746 137.163L154.246 144.163C154.028 148.017 150.246 153.663 150.246 153.663C150.246 153.663 146.992 158.827 145.246 163.163C143.5 167.5 145.746 174.163 145.746 174.163L152.746 178.663C152.746 178.663 174.838 173.886 188.746 176.163C195.76 177.312 204.08 174.394 206.246 181.163C208.165 187.161 202.43 190.458 198.246 195.163C187.781 206.932 175.428 205.711 159.746 207.163C147.071 208.337 127.246 204.663 127.246 204.663C127.246 204.663 106.105 209.166 92.746 207.163C84.4966 205.926 79.4077 205.44 72.246 201.163C61.8509 194.955 45.2085 185.719 53.246 176.663C58.4889 170.757 73.246 173.663 73.246 173.663L88.746 176.163L104.746 172.163C104.746 172.163 106.5 165.5 106.246 161.663C105.992 157.827 102.746 152.163 102.746 152.163C102.746 152.163 93.7674 144.687 91.746 135.663C87.6296 143.774 84.5354 146.941 77.246 149.663L56.7455 169.009C56.7455 169.009 44.3204 176.556 36.123 172.509C29.8467 169.411 26.5391 168.21 28.6227 163.663C29.8109 161.071 32.8121 157.404 34.746 159.5C36.0701 160.935 34.746 164.5 34.746 164.5C34.746 164.5 40.539 169.166 42.746 166.663C44.7881 164.348 40.9949 163.328 42.0512 161.663C43.6137 159.201 49.246 163.663 49.246 163.663C49.246 163.663 53.1096 153.794 57.746 147.163C61.547 141.727 70.246 135.663 70.246 135.663C70.246 135.663 70.3397 129.718 72.246 126.663C74.3137 123.35 80.246 120.663 80.246 120.663C80.246 120.663 82.5383 112.52 86.746 110.163C89.5194 108.61 91.6379 109.329 94.746 108.663C102.483 107.006 111.046 105.65 114.246 103.163C117.446 100.677 118.466 98.9074 118.246 93.6633C118.026 88.4191 111.741 82.7416 112.246 75.1633C113.246 60.1633 126.746 58.1633 126.746 58.1633C126.746 58.1633 123.465 53.3419 124.246 50.1633C125.293 45.9021 129.443 43.3058 133.746 44.1633C137.405 44.8923 139.817 47.4575 140.246 51.1633C140.787 55.8346 132.246 60.1633 132.246 60.1633Z" fill="url(#paint2_linear_410_19045)" stroke="url(#paint3_linear_410_19045)" stroke-width="3" stroke-linejoin="round"/>
  </g>
  <defs>
    <radialGradient id="paint0_radial_410_19045" cx="0" cy="0" r="1" gradientUnits="userSpaceOnUse" gradientTransform="translate(61.3333 203.363) rotate(-90) scale(118.642)">
      <stop stop-color="#212329"/>
      <stop offset="1" stop-color="#1D1E22"/>
    </radialGradient>
    <radialGradient id="paint1_radial_410_19045" cx="0" cy="0" r="1" gradientTransform="matrix(-48.3384 105.586 -106.834 -48.5464 114.1 135.806)" gradientUnits="userSpaceOnUse">
      <stop stop-color="#1071DA"/>
      <stop offset="1" stop-color="#1071DA" stop-opacity="0"/>
    </radialGradient>
    <linearGradient id="paint2_linear_410_19045" x1="133.113" y1="25.5864" x2="211.177" y2="245.447" gradientUnits="userSpaceOnUse">
      <stop stop-color="#007DD9"/>
      <stop offset="1" stop-color="#4845DA"/>
    </linearGradient>
    <linearGradient id="paint3_linear_410_19045" x1="133.113" y1="25.5864" x2="211.177" y2="245.447" gradientUnits="userSpaceOnUse">
      <stop stop-color="#007DD9"/>
      <stop offset="1" stop-color="#4845DA"/>
    </linearGradient>
    <clipPath id="clip0_410_19045">
      <rect width="256" height="256" rx="64" fill="white"/>
    </clipPath>
  </defs>
</svg>
