<svg width="225" height="53" viewBox="0 0 225 53" fill="none" xmlns="http://www.w3.org/2000/svg">
    <path d="M216.124 37.8145C216.124 37.8145 216.58 46.1699 213.468 45.5043C212.639 45.3268 212.551 43.3773 212.72 41.2122C212.72 41.2122 212.72 41.2123 212.72 41.2123C211.345 46.9915 210.178 28.7854 210.178 28.7854L216.124 37.8145Z" fill="url(#paint0_linear_292_5583)"/>
    <path d="M216.124 37.8145C216.124 37.8145 216.58 46.1699 213.468 45.5043C212.639 45.3268 212.551 43.3773 212.72 41.2122C212.72 41.2122 212.72 41.2123 212.72 41.2123C211.345 46.9915 210.178 28.7854 210.178 28.7854L216.124 37.8145Z" stroke="#111111" stroke-linecap="round" stroke-linejoin="round"/>
    <path d="M214.007 26.9959C210.517 13.5927 206.958 2.03729 206.958 2.03729L195.597 7.10105L201.369 19.0817C200.938 21.3839 200.5 23.6101 200.08 25.5596C199.132 29.9677 203.772 40.57 205.692 36.1437C206.437 34.4262 205.864 34.1786 205.301 31.5559C204.958 29.9585 205.073 27.3781 205.073 27.3781C205.073 27.3781 209.921 30.6751 211.687 33.2972C213.325 35.7297 214.034 40.4305 214.034 40.4305C214.034 40.4305 214.25 47.4385 217.364 47.6489C218.34 47.7149 218.042 41.7416 217.404 38.1486C216.651 33.906 215.093 31.1657 214.007 26.9959Z" fill="url(#paint1_linear_292_5583)"/>
    <path d="M214.007 26.9959C210.517 13.5927 206.958 2.03729 206.958 2.03729L195.597 7.10105L201.369 19.0817C200.938 21.3839 200.5 23.6101 200.08 25.5596C199.132 29.9677 203.772 40.57 205.692 36.1437C206.437 34.4262 205.864 34.1786 205.301 31.5559C204.958 29.9585 205.073 27.3781 205.073 27.3781C205.073 27.3781 209.921 30.6751 211.687 33.2972C213.325 35.7297 214.034 40.4305 214.034 40.4305C214.034 40.4305 214.25 47.4385 217.364 47.6489C218.34 47.7149 218.042 41.7416 217.404 38.1486C216.651 33.906 215.093 31.1657 214.007 26.9959Z" stroke="#111111" stroke-linecap="round" stroke-linejoin="round"/>
    <path d="M8.32561 37.8145C8.32561 37.8145 7.86901 46.1699 10.9809 45.5043C11.8106 45.3268 11.8985 43.3773 11.7291 41.2122C11.7291 41.2122 11.7291 41.2123 11.7291 41.2123C13.1044 46.9915 14.2712 28.7854 14.2712 28.7854L8.32561 37.8145Z" fill="url(#paint2_linear_292_5583)"/>
    <path d="M8.32561 37.8145C8.32561 37.8145 7.86901 46.1699 10.9809 45.5043C11.8106 45.3268 11.8985 43.3773 11.7291 41.2122C11.7291 41.2122 11.7291 41.2123 11.7291 41.2123C13.1044 46.9915 14.2712 28.7854 14.2712 28.7854L8.32561 37.8145Z" stroke="#111111" stroke-linecap="round" stroke-linejoin="round"/>
    <path d="M10.4419 26.9959C13.9319 13.5927 17.4911 2.03729 17.4911 2.03729L28.8524 7.10105L23.0805 19.0817C23.5114 21.3839 23.9495 23.6101 24.3688 25.5596C25.3167 29.9677 20.6775 40.57 18.7575 36.1437C18.0125 34.4262 18.5853 34.1786 19.1481 31.5559C19.4908 29.9585 19.3764 27.3781 19.3764 27.3781C19.3764 27.3781 14.5281 30.6751 12.7621 33.2972C11.1238 35.7297 10.4151 40.4305 10.4151 40.4305C10.4151 40.4305 10.1993 47.4385 7.08473 47.6489C6.10906 47.7149 6.40678 41.7416 7.04487 38.1486C7.7983 33.906 9.3562 31.1657 10.4419 26.9959Z" fill="url(#paint3_linear_292_5583)"/>
    <path d="M10.4419 26.9959C13.9319 13.5927 17.4911 2.03729 17.4911 2.03729L28.8524 7.10105L23.0805 19.0817C23.5114 21.3839 23.9495 23.6101 24.3688 25.5596C25.3167 29.9677 20.6775 40.57 18.7575 36.1437C18.0125 34.4262 18.5853 34.1786 19.1481 31.5559C19.4908 29.9585 19.3764 27.3781 19.3764 27.3781C19.3764 27.3781 14.5281 30.6751 12.7621 33.2972C11.1238 35.7297 10.4151 40.4305 10.4151 40.4305C10.4151 40.4305 10.1993 47.4385 7.08473 47.6489C6.10906 47.7149 6.40678 41.7416 7.04487 38.1486C7.7983 33.906 9.3562 31.1657 10.4419 26.9959Z" stroke="#111111" stroke-linecap="round" stroke-linejoin="round"/>
    <defs>
        <linearGradient id="paint0_linear_292_5583" x1="209.627" y1="29.0032" x2="215.887" y2="44.8225" gradientUnits="userSpaceOnUse">
            <stop stop-color="#9396A3"/>
            <stop offset="1" stop-color="#6A6B70"/>
        </linearGradient>
        <linearGradient id="paint1_linear_292_5583" x1="199.216" y1="5.10068" x2="216.237" y2="48.1189" gradientUnits="userSpaceOnUse">
            <stop stop-color="#9396A3"/>
            <stop offset="1" stop-color="#6A6B70"/>
        </linearGradient>
        <linearGradient id="paint2_linear_292_5583" x1="14.8217" y1="29.0032" x2="8.5625" y2="44.8225" gradientUnits="userSpaceOnUse">
            <stop stop-color="#9396A3"/>
            <stop offset="1" stop-color="#6A6B70"/>
        </linearGradient>
        <linearGradient id="paint3_linear_292_5583" x1="25.2334" y1="5.10068" x2="8.21226" y2="48.1189" gradientUnits="userSpaceOnUse">
            <stop stop-color="#9396A3"/>
            <stop offset="1" stop-color="#6A6B70"/>
        </linearGradient>
    </defs>
</svg>
