<svg width="80" height="80" viewBox="0 0 80 80" fill="none" xmlns="http://www.w3.org/2000/svg">
    <path d="M80 40C80 48.3506 77.3865 56.4918 72.5261 63.2821C67.6656 70.0724 60.8018 75.1712 52.8972 77.8637C44.9926 80.5562 36.4436 80.7073 28.4488 78.2958C20.4539 75.8843 13.4143 71.0312 8.31693 64.4169C3.21956 57.8026 0.320051 49.7588 0.0249796 41.4134C-0.270092 33.068 2.05407 24.8396 6.67157 17.8818C11.2891 10.924 17.9684 5.58577 25.7729 2.61565C33.5774 -0.354463 42.1158 -0.807544 50.1908 1.31994L47.5412 11.3768C41.5657 9.80242 35.2473 10.1377 29.4719 12.3356C23.6966 14.5335 18.7539 18.4837 15.337 23.6325C11.92 28.7813 10.2001 34.8704 10.4185 41.0459C10.6368 47.2215 12.7825 53.1739 16.5545 58.0685C20.3266 62.9631 25.5359 66.5544 31.4521 68.3389C37.3682 70.1234 43.6945 70.0116 49.544 68.0192C55.3934 66.0267 60.4725 62.2536 64.0693 57.2287C67.666 52.2039 69.6 46.1794 69.6 40H80Z" fill="#111111"/>
</svg>
