<svg width="128" height="128" viewBox="0 0 128 128" fill="none" xmlns="http://www.w3.org/2000/svg">
    <g filter="url(#filter0_d_147_5098)">
        <path d="M64 20C71.9113 20 79.6448 22.346 86.2228 26.7412C92.8008 31.1365 97.9277 37.3836 100.955 44.6927C103.983 52.0017 104.775 60.0444 103.231 67.8036C101.688 75.5629 97.8784 82.6902 92.2843 88.2843C86.6902 93.8784 79.5629 97.688 71.8036 99.2314C64.0444 100.775 56.0017 99.9827 48.6927 96.9552C41.3836 93.9277 35.1365 88.8008 30.7412 82.2228C27.0892 76.7572 24.852 70.4938 24.1998 63.9935C23.9793 61.7954 25.7909 60 28 60H30.4C32.6091 60 34.3722 61.7989 34.6699 63.9879C35.2735 68.4276 36.88 72.6906 39.3885 76.4449C42.641 81.3126 47.2639 85.1065 52.6726 87.3468C58.0813 89.5872 64.0328 90.1734 69.7747 89.0312C75.5165 87.8891 80.7907 85.07 84.9304 80.9304C89.07 76.7907 91.8891 71.5165 93.0312 65.7747C94.1734 60.0328 93.5872 54.0813 91.3468 48.6726C89.1065 43.2639 85.3126 38.641 80.4449 35.3885C75.5772 32.136 69.8543 30.4 64 30.4V20Z" fill="url(#paint0_linear_147_5098)"/>
    </g>
    <defs>
        <filter id="filter0_d_147_5098" x="0.181641" y="0" width="127.818" height="128" filterUnits="userSpaceOnUse" color-interpolation-filters="sRGB">
            <feFlood flood-opacity="0" result="BackgroundImageFix"/>
            <feColorMatrix in="SourceAlpha" type="matrix" values="0 0 0 0 0 0 0 0 0 0 0 0 0 0 0 0 0 0 127 0" result="hardAlpha"/>
            <feOffset dy="4"/>
            <feGaussianBlur stdDeviation="12"/>
            <feComposite in2="hardAlpha" operator="out"/>
            <feColorMatrix type="matrix" values="0 0 0 0 0 0 0 0 0 0.136157 0 0 0 0 0.85098 0 0 0 0.16 0"/>
            <feBlend mode="normal" in2="BackgroundImageFix" result="effect1_dropShadow_147_5098"/>
            <feBlend mode="normal" in="SourceGraphic" in2="effect1_dropShadow_147_5098" result="shape"/>
        </filter>
        <linearGradient id="paint0_linear_147_5098" x1="67.7363" y1="11" x2="110.728" y2="114.077" gradientUnits="userSpaceOnUse">
            <stop stop-color="#007DD9"/>
            <stop offset="1" stop-color="#4845DA"/>
        </linearGradient>
    </defs>
</svg>
