<svg width="227" height="424" viewBox="0 0 227 424" fill="none" xmlns="http://www.w3.org/2000/svg">
    <path d="M124.923 297.004C123.775 293.27 123.943 284.459 123.943 284.459L147.262 270.255C147.262 270.255 146.597 283.725 147.936 292.239C148.787 297.652 150.001 298.826 151.176 304.178C152.452 309.988 153.594 320.311 153.594 320.311C153.594 320.311 156.84 336.309 155.988 346.572C154.891 359.767 150.96 388.243 150.96 388.243C150.96 388.243 150.403 396.814 152.035 401.915C154.154 408.539 160.181 411.831 162.262 416.495C163.177 418.545 162.256 419.631 159.47 421.5C156.79 423.299 148.851 423.691 143.149 421.5C140.832 420.61 139.839 418.901 139.232 416.495C138.63 414.109 138.753 406.265 139.232 399.739C139.589 394.871 140.826 387.341 140.826 387.341C140.826 387.341 132.62 362.836 130.01 346.572C127.314 329.767 128.952 309.957 127.593 303.056C127.003 300.06 125.821 299.923 124.923 297.004Z" fill="white" stroke="#111111" stroke-linejoin="round"/>
    <path d="M93.6902 296.996C94.8384 293.261 94.9738 286.297 94.9738 286.297L71.3576 270.293C71.3576 270.293 72.0161 283.717 70.6773 292.231C69.8262 297.644 68.6124 298.818 67.4371 304.17C66.161 309.98 65.0194 320.303 65.0194 320.303C65.0194 320.303 61.773 336.301 62.6257 346.563C63.7221 359.758 67.6529 388.235 67.6529 388.235C67.6529 388.235 68.2101 396.806 66.5783 401.907C64.4592 408.531 58.4324 411.822 56.3511 416.487C55.4364 418.537 56.3577 419.623 59.1429 421.492C61.8236 423.29 69.7622 423.682 75.4646 421.492C77.7815 420.601 78.7744 418.893 79.3816 416.487C79.9835 414.101 79.8607 406.257 79.3816 399.73C79.0242 394.862 77.787 387.333 77.787 387.333C77.787 387.333 85.9938 362.828 88.6031 346.563C91.2993 329.758 89.661 309.949 91.0201 303.048C91.6102 300.052 92.7928 299.915 93.6902 296.996Z" fill="white" stroke="#111111" stroke-linejoin="round"/>
    <path d="M70.2175 359.443C71.2707 372.687 73.5429 393.3 73.5429 393.3C73.5429 393.3 76.7818 370.547 78.5066 355.923C79.3014 349.184 78.5607 345.178 80.4254 338.653C82.5688 331.154 90.3125 320.935 90.3125 320.935C90.3125 320.935 89.9484 310.549 85.6587 310.568C84.3014 310.574 82.3443 311.614 82.3443 311.614C82.3443 311.614 81.0488 305.493 77.2752 304.981C75.2229 304.703 73.3825 305.212 71.7905 306.23C69.4191 307.748 67.599 310.397 66.4512 313.261C64.5733 317.946 67.3938 321.888 68.2138 326.966C70.2397 339.511 69.2101 346.776 70.2175 359.443Z" fill="white"/>
    <path d="M85.6587 310.568C84.3014 310.574 82.3443 311.614 82.3443 311.614C82.3443 311.614 81.0488 305.493 77.2752 304.981C75.2229 304.703 73.3825 305.212 71.7905 306.23M85.6587 310.568C89.9484 310.549 90.3125 320.935 90.3125 320.935C90.3125 320.935 82.5688 331.154 80.4254 338.653C78.5607 345.178 79.3014 349.184 78.5066 355.923C76.7818 370.547 73.5429 393.3 73.5429 393.3C73.5429 393.3 71.2707 372.687 70.2175 359.443C69.2101 346.776 70.2397 339.511 68.2138 326.966C67.3938 321.888 64.5733 317.946 66.4512 313.261C67.599 310.397 69.4191 307.748 71.7905 306.23M85.6587 310.568C85.9099 307.291 85.8165 305.446 84.3186 302.208M76.418 296.638C73.775 299.885 72.6972 301.93 71.7905 306.23" stroke="#111111" stroke-linecap="round" stroke-linejoin="round"/>
    <path d="M148.398 359.443C147.345 372.687 145.072 393.3 145.072 393.3C145.072 393.3 141.833 370.547 140.109 355.923C139.314 349.184 140.055 345.178 138.19 338.653C136.046 331.154 128.303 320.935 128.303 320.935C128.303 320.935 128.667 310.549 132.956 310.568C134.314 310.574 136.271 311.614 136.271 311.614C136.271 311.614 137.566 305.493 141.34 304.981C143.392 304.703 145.233 305.212 146.825 306.23C149.196 307.748 151.016 310.397 152.164 313.261C154.042 317.946 151.221 321.888 150.401 326.966C148.376 339.511 149.405 346.776 148.398 359.443Z" fill="white"/>
    <path d="M132.956 310.568C134.314 310.574 136.271 311.614 136.271 311.614C136.271 311.614 137.566 305.493 141.34 304.981C143.392 304.703 145.233 305.212 146.825 306.23M132.956 310.568C128.667 310.549 128.303 320.935 128.303 320.935C128.303 320.935 136.046 331.154 138.19 338.653C140.055 345.178 139.314 349.184 140.109 355.923C141.833 370.547 145.072 393.3 145.072 393.3C145.072 393.3 147.345 372.687 148.398 359.443C149.405 346.776 148.376 339.511 150.401 326.966C151.221 321.888 154.042 317.946 152.164 313.261C151.016 310.397 149.196 307.748 146.825 306.23M132.956 310.568C132.705 307.291 132.799 305.446 134.297 302.208M142.197 296.638C144.84 299.885 145.918 301.93 146.825 306.23" stroke="#111111" stroke-linecap="round" stroke-linejoin="round"/>
    <path d="M90.739 292.283C94.532 291.379 95.3474 287.213 95.3474 287.213L91.3985 260.721L84.9092 268.716L81.3105 283.05C81.3105 283.05 85.9444 293.425 90.739 292.283Z" fill="white" stroke="#111111" stroke-linejoin="round"/>
    <path d="M128.894 292.283C125.06 291.369 124.579 287.213 124.579 287.213L128.234 260.721L134.724 268.716L138.322 283.05C138.322 283.05 133.688 293.425 128.894 292.283Z" fill="white" stroke="#111111" stroke-linejoin="round"/>
    <path d="M92.6506 259.043C87.4604 265.667 84.7958 270.251 81.7397 284.418L74.6267 272.087L69.6465 221.102L77.4726 208.297L92.6506 259.043Z" fill="white" stroke="#111111" stroke-linejoin="round"/>
    <path d="M126.199 259.043C131.389 265.667 134.054 270.251 137.11 284.418L144.223 272.087L149.203 221.102L141.377 208.297L126.199 259.043Z" fill="white" stroke="#111111" stroke-linejoin="round"/>
    <path d="M68.4258 222.936L71.6811 219.349C72.0107 247.112 73.8493 261.118 80.2238 283.042C80.2238 283.042 74.107 280.476 72.6116 276.983C69.3526 269.371 68.4258 222.936 68.4258 222.936Z" fill="white" stroke="#111111" stroke-linejoin="round"/>
    <path d="M150.422 222.936L147.167 219.349C146.837 247.112 144.998 261.118 138.624 283.042C138.624 283.042 144.741 280.476 146.236 276.983C149.495 269.371 150.422 222.936 150.422 222.936Z" fill="white" stroke="#111111" stroke-linejoin="round"/>
    <path d="M68.404 224.277C67.5981 192.462 69.6044 187.321 74.3217 183.931L79.1644 187.159C79.1644 187.159 81.0783 201.849 77.8194 210.29C75.4481 216.433 68.404 224.277 68.404 224.277Z" fill="white" stroke="#111111" stroke-linejoin="round"/>
    <path d="M150.446 224.277C151.252 192.462 149.245 187.321 144.528 183.931L139.685 187.159C139.685 187.159 137.771 201.849 141.03 210.29C143.401 216.433 150.446 224.277 150.446 224.277Z" fill="white" stroke="#111111" stroke-linejoin="round"/>
    <path d="M87.4536 252.819C93.0083 268.273 94.9362 288.426 94.9362 288.426C94.9362 288.426 104.752 257.066 105.521 234.751C105.861 224.886 104.644 209.491 104.644 209.491C101.124 196.009 94.8533 191.517 77.9814 187.563C77.9814 187.563 75.2463 213.788 79.7353 228.962C82.3513 237.805 84.3344 244.141 87.4536 252.819Z" fill="white" stroke="#111111" stroke-linejoin="round"/>
    <path d="M131.396 252.819C125.841 268.273 124.943 288.686 124.943 288.686C124.943 288.686 114.097 257.066 113.328 234.751C112.989 224.886 114.205 209.491 114.205 209.491C122.567 192.712 128.669 188.967 140.868 187.563C140.868 187.563 143.603 213.788 139.114 228.962C136.498 237.805 134.515 244.141 131.396 252.819Z" fill="white" stroke="#111111" stroke-linejoin="round"/>
    <path d="M109.46 2.53906C109.46 2.53906 111.485 1.92579 113.204 1.92585C125.725 1.92635 134.427 15.9631 131.32 40.5682C129.473 55.1903 137.472 77.8032 137.472 77.8032L81.7832 80.5028C81.7832 80.5028 83.9017 52.1203 85.1584 33.9271C86.1565 19.4774 93.4853 -0.735716 105.109 1.11907C106.918 1.40771 109.46 2.53906 109.46 2.53906Z" fill="white" stroke="#111111" stroke-linejoin="round"/>
    <path d="M75.7748 74.2315C98.9998 73.2899 97.6527 65.5861 97.755 53.0967H121.423C121.423 53.0967 120.431 63.2982 125.65 69.1591C132.977 77.3888 151.857 75.9222 151.857 75.9222C151.857 75.9222 147.842 106.635 140.021 127.491C137.485 134.254 136.067 143.995 136.64 152.007C137.485 163.843 148.475 188.359 148.475 188.359C134.598 192.298 118.041 208.803 115.505 212.03C112.969 215.258 106.206 214.95 103.669 212.03C101.133 209.11 84.4524 192.542 70.6992 188.359C70.6992 188.359 83.1217 164.728 83.3802 150.317C83.5243 142.285 79.9986 130.027 79.9986 130.027C69.7544 90.6799 73.017 97.1042 75.7748 74.2315Z" fill="white" stroke="#111111" stroke-linejoin="round"/>
    <path d="M126.509 168.071C122.799 186.087 117.208 213.722 109.601 212.032C99.6618 209.823 97.2502 186.337 93.5271 168.071C89.7685 149.632 90.9847 124.956 94.3686 119.884C98.5022 113.687 109.601 115.657 109.601 115.657C109.601 115.657 122.378 113.686 126.509 119.884C131.579 127.492 130.307 149.629 126.509 168.071Z" fill="white" stroke="#111111" stroke-linejoin="round"/>
    <path d="M112.24 131.573V121.895C112.24 120.445 113.605 119.383 115.011 119.739L123.05 121.776C123.947 122.003 124.609 122.762 124.714 123.681L125.894 134.052C126.074 135.635 124.58 136.888 123.052 136.436L113.833 133.706C112.888 133.426 112.24 132.558 112.24 131.573Z" fill="white" stroke="#111111" stroke-linecap="round" stroke-linejoin="round"/>
    <path d="M107.557 131.573V121.895C107.557 120.445 106.192 119.383 104.786 119.739L96.7465 121.776C95.8498 122.003 95.1874 122.762 95.0829 123.681L93.9033 134.052C93.7233 135.635 95.2171 136.888 96.7446 136.436L105.964 133.706C106.909 133.426 107.557 132.558 107.557 131.573Z" fill="white" stroke="#111111" stroke-linecap="round" stroke-linejoin="round"/>
    <path d="M111.281 202.072V171.969C111.281 171.378 111.76 170.898 112.352 170.898H122.304C122.984 170.898 123.492 171.526 123.354 172.192C120.685 185.164 119.911 193.881 113.084 202.719C112.482 203.499 111.281 203.057 111.281 202.072Z" fill="white" stroke="#111111" stroke-width="0.962527" stroke-linecap="round" stroke-linejoin="round"/>
    <path d="M108.785 202.074V171.971C108.785 171.38 108.306 170.9 107.715 170.9H97.7626C97.0823 170.9 96.5749 171.528 96.712 172.194C99.3815 185.166 100.155 193.883 106.982 202.721C107.585 203.501 108.785 203.059 108.785 202.074Z" fill="white" stroke="#111111" stroke-width="0.962527" stroke-linecap="round" stroke-linejoin="round"/>
    <path d="M125.068 164.946V158.313C125.068 157.085 124.072 156.089 122.844 156.089H113.597C112.369 156.089 111.373 157.085 111.373 158.313V164.946C111.373 166.174 112.369 167.17 113.597 167.17H122.844C124.072 167.17 125.068 166.174 125.068 164.946Z" fill="white" stroke="#111111" stroke-linecap="round" stroke-linejoin="round"/>
    <path d="M109.384 165.091V158.458C109.384 157.23 108.388 156.234 107.16 156.234H97.1967C95.9684 156.234 94.9727 157.23 94.9727 158.458V165.091C94.9727 166.319 95.9684 167.315 97.1967 167.315H107.16C108.388 167.315 109.384 166.319 109.384 165.091Z" fill="white" stroke="#111111" stroke-linecap="round" stroke-linejoin="round"/>
    <path d="M112.913 149.393L111.424 141.012C111.129 139.348 112.724 137.976 114.325 138.516L123.874 141.739C124.598 141.983 125.146 142.583 125.325 143.326L126.836 149.604C127.197 151.108 125.951 152.513 124.415 152.333L114.844 151.213C113.869 151.099 113.085 150.36 112.913 149.393Z" fill="white" stroke="#111111" stroke-linecap="round" stroke-linejoin="round"/>
    <path d="M108.77 84.162V115.306C108.77 115.306 95.7594 125.972 83.5998 112.533C77.5508 105.848 63.9746 100.374 63.9746 100.374L83.5998 77.1221L108.77 84.162Z" fill="white" stroke="#111111" stroke-linejoin="round"/>
    <path d="M109.628 84.162V115.306C109.628 115.306 122.639 125.972 134.799 112.533C140.848 105.848 154.424 100.374 154.424 100.374L134.799 77.1221L109.628 84.162Z" fill="white" stroke="#111111" stroke-linejoin="round"/>
    <path d="M108.178 149.287L109.525 140.882C109.792 139.214 108.174 137.868 106.582 138.435L97.0891 141.819C96.369 142.075 95.8312 142.684 95.6649 143.43L94.2607 149.732C93.9242 151.242 95.1939 152.626 96.7272 152.42L106.277 151.139C107.25 151.009 108.022 150.256 108.178 149.287Z" fill="white" stroke="#111111" stroke-linecap="round" stroke-linejoin="round"/>
    <path d="M97.7526 48.8701H122.269C121.074 60.9917 119.927 67.9334 115.506 80.995C124.604 76.1331 129.718 74.9158 139.177 75.9226L135.795 78.4588C135.795 78.4588 120.812 80.9546 115.506 86.9127C109.483 93.6758 112.124 115.656 112.124 115.656H107.052C107.052 115.656 110.706 93.7302 102.825 85.2219C97.0744 79.0137 84.2263 78.4588 84.2263 78.4588L78.3086 75.9226C87.018 74.7365 95.2215 74.9226 103.67 80.995C99.4812 67.1979 98.5404 60.3791 97.7526 48.8701Z" fill="white" stroke="#111111" stroke-linejoin="round"/>
    <path d="M27.0222 184.39C47.0043 158.395 56.2858 144.436 58.8792 123.988L45.6926 120.05C34.2901 133.18 28.4191 147.961 18.0394 180.895C21.4908 180.408 26.3584 182.62 27.0222 184.39Z" fill="white" stroke="#111111" stroke-linejoin="round"/>
    <path d="M64.4292 88.5462L71.289 93.2813C71.8779 93.6879 72.2042 94.3768 72.1242 95.088C71.6829 99.0099 69.8628 111.988 64.5427 118.63C60.8051 123.297 53.2742 127.416 49.4678 129.305C48.3009 129.884 46.9597 129.154 46.8091 127.86C45.9978 120.89 44.6538 101.474 53.5675 93.6739C56.1354 91.4268 60.5494 89.2729 62.5212 88.3681C63.144 88.0823 63.8653 88.1569 64.4292 88.5462Z" fill="white" stroke="#111111" stroke-linejoin="round"/>
    <path d="M195.434 185.904C174.458 160.703 163.962 146.79 160.577 126.459L173.601 122.012C185.504 134.69 191.944 149.231 203.595 181.738C200.127 181.385 196.029 184.11 195.434 185.904Z" fill="white" stroke="#111111" stroke-linejoin="round"/>
    <path d="M151.899 92.5856L150.176 91.3014C148.786 90.2654 146.862 91.3605 147.088 93.0793C148.145 101.139 150.887 117.784 156.023 123.315C163.063 130.896 170.144 132.126 173.316 132.258C174.309 132.299 175.044 131.488 175.014 130.495C174.826 124.351 173.415 103.53 162.954 96.9479C159.689 94.8931 154.11 93.3257 152.604 92.9252C152.348 92.8571 152.111 92.7438 151.899 92.5856Z" fill="white" stroke="#111111" stroke-linejoin="round"/>
    <path d="M109.718 61.4442C119.938 61.337 124.165 46.0599 125.808 36.5503C126.577 32.0962 124.084 27.8533 119.937 26.0549C114.836 23.8427 107.405 20.7788 99.4952 18.052C92.2677 15.5603 92.4226 33.1724 92.5126 36.4408C92.5221 36.7863 92.5522 37.1156 92.6091 37.4565C93.1923 40.9502 97.1679 61.5758 109.718 61.4442Z" fill="white" stroke="#111111" stroke-linejoin="round"/>
    <path d="M217.076 206.043C217.076 206.043 219.05 212.737 216.397 212.794C215.689 212.809 215.244 211.244 214.966 209.454C214.966 209.454 214.966 209.454 214.966 209.454C214.959 214.409 210.517 199.857 210.517 199.857L217.076 206.043Z" fill="white" stroke="#111111" stroke-linecap="round" stroke-linejoin="round"/>
    <path d="M213.282 197.67C207.876 187.462 202.478 178.422 202.478 178.422L194.553 185.026L201.505 193.673C201.597 195.624 201.669 197.515 201.703 199.178C201.78 202.937 207.58 210.652 208.289 206.691C208.564 205.154 208.051 205.063 207.091 203.042C206.506 201.812 206.104 199.695 206.104 199.695C206.104 199.695 210.672 201.44 212.608 203.23C214.405 204.889 215.882 208.568 215.882 208.568C215.882 208.568 217.403 214.215 219.971 213.788C220.775 213.654 219.387 208.863 218.179 206.069C216.754 202.771 214.963 200.846 213.282 197.67Z" fill="white"/>
    <path d="M213.282 197.67C207.876 187.462 202.478 178.422 202.478 178.422L194.553 185.026L201.505 193.673C201.597 195.624 201.669 197.515 201.703 199.178C201.78 202.937 207.58 210.652 208.289 206.691C208.564 205.154 208.051 205.063 207.091 203.042C206.506 201.812 206.104 199.695 206.104 199.695C206.104 199.695 210.672 201.44 212.608 203.23C214.405 204.889 215.882 208.568 215.882 208.568C215.882 208.568 217.403 214.215 219.971 213.788C220.775 213.654 219.387 208.863 218.179 206.069C216.754 202.771 214.963 200.846 213.282 197.67Z" fill="white"/>
    <path d="M213.282 197.67C207.876 187.462 202.478 178.422 202.478 178.422L194.553 185.026L201.505 193.673C201.597 195.624 201.669 197.515 201.703 199.178C201.78 202.937 207.58 210.652 208.289 206.691C208.564 205.154 208.051 205.063 207.091 203.042C206.506 201.812 206.104 199.695 206.104 199.695C206.104 199.695 210.672 201.44 212.608 203.23C214.405 204.889 215.882 208.568 215.882 208.568C215.882 208.568 217.403 214.215 219.971 213.788C220.775 213.654 219.387 208.863 218.179 206.069C216.754 202.771 214.963 200.846 213.282 197.67Z" stroke="#111111" stroke-linecap="round" stroke-linejoin="round"/>
    <path d="M7.92243 206.682C7.92243 206.682 6.81457 213.573 9.4537 213.292C10.1574 213.217 10.4004 211.608 10.4488 209.797C10.4488 209.797 10.4488 209.797 10.4488 209.797C11.0852 214.711 13.6417 199.712 13.6417 199.712L7.92243 206.682Z" fill="white" stroke="#111111" stroke-linecap="round" stroke-linejoin="round"/>
    <path d="M10.6201 197.894C14.6843 187.082 18.6448 177.808 18.6448 177.808L27.626 183L21.7933 192.433C21.9498 194.38 22.1189 196.265 22.2965 197.918C22.6981 201.657 17.925 210.046 16.7188 206.207C16.2508 204.718 16.7475 204.562 17.4431 202.436C17.8668 201.141 17.9971 198.991 17.9971 198.991C17.9971 198.991 13.6882 201.302 11.9946 203.323C10.4235 205.197 9.42542 209.035 9.42542 209.035C9.42542 209.035 8.63492 214.828 6.03329 214.731C5.21831 214.7 5.9865 209.772 6.82929 206.848C7.82443 203.395 9.3557 201.258 10.6201 197.894Z" fill="white"/>
    <path d="M10.6201 197.894C14.6843 187.082 18.6448 177.808 18.6448 177.808L27.626 183L21.7933 192.433C21.9498 194.38 22.1189 196.265 22.2965 197.918C22.6981 201.657 17.925 210.046 16.7188 206.207C16.2508 204.718 16.7475 204.562 17.4431 202.436C17.8668 201.141 17.9971 198.991 17.9971 198.991C17.9971 198.991 13.6882 201.302 11.9946 203.323C10.4235 205.197 9.42542 209.035 9.42542 209.035C9.42542 209.035 8.63492 214.828 6.03329 214.731C5.21831 214.7 5.9865 209.772 6.82929 206.848C7.82443 203.395 9.3557 201.258 10.6201 197.894Z" fill="white"/>
    <path d="M10.6201 197.894C14.6843 187.082 18.6448 177.808 18.6448 177.808L27.626 183L21.7933 192.433C21.9498 194.38 22.1189 196.265 22.2965 197.918C22.6981 201.657 17.925 210.046 16.7188 206.207C16.2508 204.718 16.7475 204.562 17.4431 202.436C17.8668 201.141 17.9971 198.991 17.9971 198.991C17.9971 198.991 13.6882 201.302 11.9946 203.323C10.4235 205.197 9.42542 209.035 9.42542 209.035C9.42542 209.035 8.63492 214.828 6.03329 214.731C5.21831 214.7 5.9865 209.772 6.82929 206.848C7.82443 203.395 9.3557 201.258 10.6201 197.894Z" stroke="#111111" stroke-linecap="round" stroke-linejoin="round"/>
    <path d="M146.357 72.3879C138.52 70.6242 131.573 79.5366 131.573 79.5366C131.573 79.5366 139.064 84.526 147.042 92.1317C151.907 96.7697 166.994 99.5075 166.994 99.5075C166.453 95.5097 160.97 75.6768 146.357 72.3879Z" fill="white" stroke="#111111" stroke-linejoin="round"/>
    <path d="M71.2259 72.8513C78.8885 70.4408 86.5539 78.7434 86.5539 78.7434C86.5539 78.7434 80.3962 83.8874 73.0796 92.1315C68.2373 97.5876 49.7463 100.056 49.7463 100.056C49.9529 96.0268 56.9376 77.3463 71.2259 72.8513Z" fill="white" stroke="#111111" stroke-linejoin="round"/>
</svg>
