<svg width="206" height="424" viewBox="0 0 206 424" fill="none" xmlns="http://www.w3.org/2000/svg">
    <path d="M47.3434 148.446C49.2464 140.257 47.5975 128.041 47.5975 128.041L30.0254 125.568C30.0254 125.568 25.5047 133.103 23.0506 138.58C19.1671 147.246 20.0008 156.893 18.9508 166.332C17.7639 177.003 16.1371 182.277 16.1371 182.277L27.9526 183.439C27.9526 183.439 27.8433 185.972 34.4717 171.192C38.6513 161.872 45.0315 158.395 47.3434 148.446Z" fill="white" stroke="#111111" stroke-linecap="round" stroke-linejoin="round"/>
    <path d="M155.719 148.638C153.239 140.607 154.015 128.305 154.015 128.305L171.369 124.586C171.369 124.586 176.414 131.779 179.252 137.066C183.742 145.433 183.596 155.114 185.314 164.453C187.256 175.01 191.092 187.338 191.092 187.338L180.602 191.857C180.602 191.857 174.993 177.973 170.176 170.406C164.692 161.791 158.732 158.396 155.719 148.638Z" fill="white" stroke="#111111" stroke-linecap="round" stroke-linejoin="round"/>
    <path d="M87.5873 333.514C88.6878 323.575 87.5873 307.908 87.5873 307.908L65.9859 304.981C65.9859 304.981 59.9191 322.514 58.2972 335.343C55.6414 356.35 65.6514 381.068 63.4229 389.848C61.6084 396.996 59.4386 400.097 56.1005 406.674C53.6941 411.416 49.3919 413.498 50.2425 418.746C50.9539 423.136 67.0842 424.159 70.3794 421.672C75.7912 417.588 75.8713 406.674 75.8713 406.674C75.8713 406.674 78.3222 402.501 78.8002 400.09C79.389 397.121 76.9697 392.774 76.9697 392.774L75.8713 373.021C75.8713 373.021 85.8164 349.508 87.5873 333.514Z" fill="white"/>
    <path d="M87.5873 333.514C88.6878 323.575 87.5873 307.908 87.5873 307.908L65.9859 304.981C65.9859 304.981 59.9191 322.514 58.2972 335.343C55.6414 356.35 65.6514 381.068 63.4229 389.848C61.6084 396.996 59.4386 400.097 56.1005 406.674C53.6941 411.416 49.3919 413.498 50.2425 418.746C50.9539 423.136 67.0842 424.159 70.3794 421.672C75.7912 417.588 75.8713 406.674 75.8713 406.674C75.8713 406.674 78.3222 402.501 78.8002 400.09C79.389 397.121 76.9697 392.774 76.9697 392.774L75.8713 373.021C75.8713 373.021 85.8164 349.508 87.5873 333.514Z" fill="white"/>
    <path d="M87.5873 333.514C88.6878 323.575 87.5873 307.908 87.5873 307.908L65.9859 304.981C65.9859 304.981 59.9191 322.514 58.2972 335.343C55.6414 356.35 65.6514 381.068 63.4229 389.848C61.6084 396.996 59.4386 400.097 56.1005 406.674C53.6941 411.416 49.3919 413.498 50.2425 418.746C50.9539 423.136 67.0842 424.159 70.3794 421.672C75.7912 417.588 75.8713 406.674 75.8713 406.674C75.8713 406.674 78.3222 402.501 78.8002 400.09C79.389 397.121 76.9697 392.774 76.9697 392.774L75.8713 373.021C75.8713 373.021 85.8164 349.508 87.5873 333.514Z" stroke="#111111" stroke-linecap="round" stroke-linejoin="round"/>
    <path d="M118.967 333.514C117.867 323.575 118.967 307.908 118.967 307.908L140.569 304.981C140.569 304.981 146.636 322.514 148.258 335.343C150.913 356.35 140.903 381.068 143.132 389.848C144.946 396.996 147.116 400.097 150.454 406.674C152.861 411.416 157.163 413.498 156.312 418.746C155.601 423.136 139.471 424.159 136.175 421.672C130.764 417.588 130.683 406.674 130.683 406.674C130.683 406.674 128.233 402.501 127.754 400.09C127.166 397.121 129.585 392.774 129.585 392.774L130.683 373.021C130.683 373.021 120.738 349.508 118.967 333.514Z" fill="white"/>
    <path d="M118.967 333.514C117.867 323.575 118.967 307.908 118.967 307.908L140.569 304.981C140.569 304.981 146.636 322.514 148.258 335.343C150.913 356.35 140.903 381.068 143.132 389.848C144.946 396.996 147.116 400.097 150.454 406.674C152.861 411.416 157.163 413.498 156.312 418.746C155.601 423.136 139.471 424.159 136.175 421.672C130.764 417.588 130.683 406.674 130.683 406.674C130.683 406.674 128.233 402.501 127.754 400.09C127.166 397.121 129.585 392.774 129.585 392.774L130.683 373.021C130.683 373.021 120.738 349.508 118.967 333.514Z" fill="white"/>
    <path d="M118.967 333.514C117.867 323.575 118.967 307.908 118.967 307.908L140.569 304.981C140.569 304.981 146.636 322.514 148.258 335.343C150.913 356.35 140.903 381.068 143.132 389.848C144.946 396.996 147.116 400.097 150.454 406.674C152.861 411.416 157.163 413.498 156.312 418.746C155.601 423.136 139.471 424.159 136.175 421.672C130.764 417.588 130.683 406.674 130.683 406.674C130.683 406.674 128.233 402.501 127.754 400.09C127.166 397.121 129.585 392.774 129.585 392.774L130.683 373.021C130.683 373.021 120.738 349.508 118.967 333.514Z" stroke="#111111" stroke-linecap="round" stroke-linejoin="round"/>
    <path d="M104.797 205.849L126.764 186.096C127.473 215.444 121.661 231.739 107.726 260.719C105.755 240.806 104.813 229.341 104.797 205.849Z" fill="white" stroke="#111111" stroke-linecap="round" stroke-linejoin="round"/>
    <path d="M101.193 205.117L79.2258 185.363C78.5174 214.712 84.329 231.007 98.2644 259.987C100.235 240.073 101.177 228.609 101.193 205.117Z" fill="white" stroke="#111111" stroke-linecap="round" stroke-linejoin="round"/>
    <path d="M142.02 183.534C140.636 178.415 136.894 171.463 136.894 171.463L132.867 173.292L125.178 192.314L119.32 213.53C119.32 213.53 109.002 232.644 106.872 246.087C104.358 261.952 108.703 284.496 110.533 287.056C113.096 290.641 120.419 296.201 126.277 291.446C130.05 288.383 128.473 281.935 128.473 281.935C130.763 277.608 131.997 274.892 135.43 277.18L138.359 289.617C154.834 236.576 146.414 204.385 144.949 200.361C143.484 196.337 143.734 189.878 142.02 183.534Z" fill="white"/>
    <path d="M135.43 277.18L138.359 289.617C154.834 236.576 146.414 204.385 144.949 200.361C143.484 196.337 143.734 189.878 142.02 183.534C140.636 178.415 136.894 171.463 136.894 171.463L132.867 173.292M135.43 277.18C146.123 231.859 142.968 214.836 133.965 187.558L132.867 173.292M135.43 277.18C131.997 274.892 130.763 277.608 128.473 281.935M132.867 173.292L125.178 192.314L119.32 213.53M119.32 213.53C119.32 213.53 119.686 227.796 120.419 237.307C121.151 246.818 126.627 258.958 128.473 281.935M119.32 213.53C119.32 213.53 109.002 232.644 106.872 246.087C104.358 261.952 108.703 284.496 110.533 287.056C113.096 290.641 120.419 296.201 126.277 291.446C130.05 288.383 128.473 281.935 128.473 281.935" stroke="#111111" stroke-linecap="round" stroke-linejoin="round"/>
    <path d="M63.4241 182.802C64.8078 177.682 68.5497 170.73 68.5497 170.73L72.5771 172.559L80.2657 191.581L86.1238 212.798C86.1238 212.798 96.4418 231.911 98.572 245.354C101.086 261.22 96.7414 283.763 94.9108 286.324C92.3479 289.909 85.0254 295.469 79.1674 290.714C75.3944 287.651 76.9706 281.203 76.9706 281.203C74.6806 276.875 73.4467 274.16 70.0144 276.447L66.353 289.25C49.8775 236.209 59.0304 203.653 60.4949 199.629C61.9595 195.605 61.7095 189.146 63.4241 182.802Z" fill="white"/>
    <path d="M70.0144 276.447L66.353 289.25C49.8775 236.209 59.0304 203.653 60.4949 199.629C61.9595 195.605 61.7095 189.146 63.4241 182.802C64.8078 177.682 68.5497 170.73 68.5497 170.73L72.5771 172.559M70.0144 276.447C59.3206 231.127 62.4759 214.104 71.4787 186.826L72.5771 172.559M70.0144 276.447C73.4467 274.16 74.6806 276.875 76.9706 281.203M72.5771 172.559L80.2657 191.581L86.1238 212.798M86.1238 212.798C86.1238 212.798 85.7576 227.064 85.0254 236.575C84.2931 246.086 78.8173 258.226 76.9706 281.203M86.1238 212.798C86.1238 212.798 96.4418 231.911 98.572 245.354C101.086 261.22 96.7414 283.763 94.9108 286.324C92.3479 289.909 85.0254 295.469 79.1674 290.714C75.3944 287.651 76.9706 281.203 76.9706 281.203" stroke="#111111" stroke-linecap="round" stroke-linejoin="round"/>
    <path d="M64.5254 129.394C62.3286 115.128 62.6948 100.496 62.6948 100.496H142.144C142.144 100.496 144.341 119.152 142.144 129.394C140.965 134.892 136.473 141.772 135.554 147.319C135.064 150.278 135.062 152.041 135.554 155.001C135.895 157.053 136.622 158.08 137.018 160.122C137.889 164.61 137.018 171.827 137.018 171.827L119.078 198.531H87.9574L67.8205 171.827C67.8205 171.827 66.2647 164.421 67.8205 160.122C68.6045 157.956 68.919 155.732 69.285 153.537C69.7785 150.578 69.4765 149.535 68.9188 146.587C67.8209 140.784 65.4242 135.231 64.5254 129.394Z" fill="white" stroke="#111111" stroke-linecap="round" stroke-linejoin="round"/>
    <path d="M124.932 156.096C124.966 146.56 124.566 138.172 123.834 131.588C123.551 129.043 123.101 125.914 123.101 122.26C123.101 118.606 123.834 112.932 123.834 112.932L102.598 92.0811L80.2648 111.469C80.2648 111.469 82.2149 122.551 82.0954 130.49C81.9504 140.127 80.997 153.879 80.997 157.925C80.997 162.315 82.0954 171.46 82.0954 171.46C82.0954 171.46 84.2282 176.887 82.0954 180.605C80.1432 184.009 76.6035 183.532 76.6035 183.532C76.6035 183.532 87.8158 211.716 102.598 211.589C116.695 211.467 129.326 183.166 129.326 183.166C129.326 183.166 123.834 185.726 123.834 174.021C123.834 166.827 124.907 163.29 124.932 156.096Z" fill="white" stroke="#111111" stroke-linecap="round" stroke-linejoin="round"/>
    <path d="M104.615 122.469V117.351C104.615 114.181 107.599 111.859 110.672 112.637L114.352 113.569C116.312 114.066 117.76 115.724 117.989 117.734L118.61 123.193C119.003 126.654 115.737 129.394 112.398 128.405L108.097 127.131C106.032 126.52 104.615 124.623 104.615 122.469Z" fill="white" stroke="#111111" stroke-linecap="round" stroke-linejoin="round"/>
    <path d="M99.6699 122.469V117.351C99.6699 114.181 96.6858 111.859 93.6131 112.637L89.9336 113.569C87.9733 114.066 86.525 115.724 86.2964 117.734L85.6755 123.193C85.2819 126.654 88.5478 129.394 91.8876 128.405L96.1879 127.131C98.2531 126.52 99.6699 124.623 99.6699 122.469Z" fill="white" stroke="#111111" stroke-linecap="round" stroke-linejoin="round"/>
    <path d="M105.164 198.336V169.868C105.164 168.525 106.253 167.437 107.595 167.437H115.712C117.257 167.437 118.41 168.859 118.106 170.374C115.674 182.493 114.583 191.197 109.061 199.664C107.839 201.538 105.164 200.574 105.164 198.336Z" fill="white" stroke="#111111" stroke-linecap="round" stroke-linejoin="round"/>
    <path d="M101.135 198.336V169.868C101.135 168.525 100.046 167.437 98.7035 167.437H90.5872C89.042 167.437 87.8885 168.859 88.1926 170.374C90.625 182.493 91.7158 191.197 97.2374 199.664C98.4597 201.538 101.135 200.574 101.135 198.336Z" fill="white" stroke="#111111" stroke-linecap="round" stroke-linejoin="round"/>
    <path d="M118.345 157.086V155.106C118.345 152.42 116.168 150.243 113.482 150.243H110.027C107.341 150.243 105.164 152.42 105.164 155.106V157.086C105.164 159.772 107.341 161.949 110.027 161.949H113.482C116.168 161.949 118.345 159.772 118.345 157.086Z" fill="white" stroke="#111111" stroke-linecap="round" stroke-linejoin="round"/>
    <path d="M100.765 157.086V155.106C100.765 152.42 98.5875 150.243 95.9019 150.243H92.4466C89.761 150.243 87.584 152.42 87.584 155.106V157.086C87.584 159.772 89.761 161.949 92.4466 161.949H95.9019C98.5875 161.949 100.765 159.772 100.765 157.086Z" fill="white" stroke="#111111" stroke-linecap="round" stroke-linejoin="round"/>
    <path d="M104.804 140.795L104.517 137.929C104.149 134.252 107.854 131.524 111.256 132.968L115.872 134.929C117.411 135.582 118.506 136.98 118.772 138.63L119.064 140.437C119.603 143.776 116.653 146.632 113.333 145.984L108.712 145.084C106.605 144.673 105.017 142.93 104.804 140.795Z" fill="white" stroke="#111111" stroke-linecap="round" stroke-linejoin="round"/>
    <path d="M100.763 140.795L101.05 137.929C101.418 134.252 97.7119 131.524 94.3107 132.968L89.6941 134.929C88.1556 135.582 87.0605 136.98 86.7942 138.63L86.5024 140.437C85.9634 143.776 88.9135 146.632 92.2333 145.984L96.8547 145.084C98.9609 144.673 100.549 142.93 100.763 140.795Z" fill="white" stroke="#111111" stroke-linecap="round" stroke-linejoin="round"/>
    <path d="M72.9436 274.985C67.8178 273.887 67.4517 289.617 65.9872 288.153V303.517C65.9872 303.517 63.6816 326.524 64.8888 341.195C66.1801 356.887 72.9436 379.238 75.5064 379.238C78.0693 379.238 71.8924 356.228 75.5064 341.195C78.9486 326.877 90.1515 306.444 90.1515 306.444L95.2772 285.593C95.2772 285.593 86.681 293.411 80.9983 291.446C73.7713 288.946 79.9832 276.492 72.9436 274.985Z" fill="white"/>
    <path d="M72.9436 274.985C67.8178 273.887 67.4517 289.617 65.9872 288.153V303.517C65.9872 303.517 63.6816 326.524 64.8888 341.195C66.1801 356.887 72.9436 379.238 75.5064 379.238C78.0693 379.238 71.8924 356.228 75.5064 341.195C78.9486 326.877 90.1515 306.444 90.1515 306.444L95.2772 285.593C95.2772 285.593 86.681 293.411 80.9983 291.446C73.7713 288.946 79.9832 276.492 72.9436 274.985Z" fill="white"/>
    <path d="M72.9436 274.985C67.8178 273.887 67.4517 289.617 65.9872 288.153V303.517C65.9872 303.517 63.6816 326.524 64.8888 341.195C66.1801 356.887 72.9436 379.238 75.5064 379.238C78.0693 379.238 71.8924 356.228 75.5064 341.195C78.9486 326.877 90.1515 306.444 90.1515 306.444L95.2772 285.593C95.2772 285.593 86.681 293.411 80.9983 291.446C73.7713 288.946 79.9832 276.492 72.9436 274.985Z" stroke="#111111" stroke-linecap="round" stroke-linejoin="round"/>
    <path d="M133.611 274.984C138.737 273.887 140.421 291.08 139.945 288.153L140.568 303.517C140.568 303.517 142.873 326.524 141.666 341.194C140.375 356.887 133.611 379.238 131.048 379.238C128.485 379.238 134.662 356.227 131.048 341.194C127.606 326.876 116.403 306.443 116.403 306.443L109.923 285.592C109.923 285.592 119.557 294.136 124.934 291.445C129.437 289.191 126.571 276.491 133.611 274.984Z" fill="white" stroke="#111111" stroke-linecap="round" stroke-linejoin="round"/>
    <path d="M198.02 218.902C198.02 218.902 198.198 226.861 195.259 226.132C194.476 225.938 194.452 224.082 194.68 222.028C194.68 222.028 194.68 222.028 194.68 222.028C193.194 227.481 192.644 210.134 192.644 210.134L198.02 218.902Z" fill="white" stroke="#111111" stroke-linecap="round" stroke-linejoin="round"/>
    <path d="M196.338 208.551C193.431 195.699 190.402 184.602 190.402 184.602L179.443 189.068L184.563 200.637C184.083 202.813 183.598 204.916 183.139 206.757C182.103 210.92 186.188 221.143 188.15 216.994C188.911 215.383 188.374 215.13 187.919 212.619C187.642 211.09 187.831 208.64 187.831 208.64C187.831 208.64 192.339 211.924 193.938 214.471C195.421 216.835 195.95 221.326 195.95 221.326C195.95 221.326 195.94 227.996 198.895 228.292C199.821 228.385 199.721 222.696 199.225 219.26C198.639 215.203 197.242 212.549 196.338 208.551Z" fill="white"/>
    <path d="M196.338 208.551C193.431 195.699 190.402 184.602 190.402 184.602L179.443 189.068L184.563 200.637C184.083 202.813 183.598 204.916 183.139 206.757C182.103 210.92 186.188 221.143 188.15 216.994C188.911 215.383 188.374 215.13 187.919 212.619C187.642 211.09 187.831 208.64 187.831 208.64C187.831 208.64 192.339 211.924 193.938 214.471C195.421 216.835 195.95 221.326 195.95 221.326C195.95 221.326 195.94 227.996 198.895 228.292C199.821 228.385 199.721 222.696 199.225 219.26C198.639 215.203 197.242 212.549 196.338 208.551Z" fill="white"/>
    <path d="M196.338 208.551C193.431 195.699 190.402 184.602 190.402 184.602L179.443 189.068L184.563 200.637C184.083 202.813 183.598 204.916 183.139 206.757C182.103 210.92 186.188 221.143 188.15 216.994C188.911 215.383 188.374 215.13 187.919 212.619C187.642 211.09 187.831 208.64 187.831 208.64C187.831 208.64 192.339 211.924 193.938 214.471C195.421 216.835 195.95 221.326 195.95 221.326C195.95 221.326 195.94 227.996 198.895 228.292C199.821 228.385 199.721 222.696 199.225 219.26C198.639 215.203 197.242 212.549 196.338 208.551Z" stroke="#111111" stroke-linecap="round" stroke-linejoin="round"/>
    <path d="M7.52763 213.888C7.52763 213.888 7.34451 222.23 10.685 221.499C11.5756 221.304 11.5982 219.359 11.3345 217.203C11.3345 217.203 11.3345 217.203 11.3345 217.204C13.0366 222.937 13.6215 204.758 13.6215 204.758L7.52763 213.888Z" fill="white" stroke="#111111" stroke-linecap="round" stroke-linejoin="round"/>
    <path d="M9.43362 202.236C13.8433 189.146 17.5736 176.402 17.5736 176.402L28.907 182.39L22.8066 194.074C23.3581 196.36 23.9148 198.57 24.4406 200.505C25.6296 204.88 21.007 215.551 18.7661 211.179C17.8967 209.482 18.5069 209.223 19.0179 206.596C19.3292 204.996 19.1095 202.425 19.1095 202.425C19.1095 202.425 13.9892 205.817 12.1769 208.469C10.4957 210.93 9.90408 215.632 9.90408 215.632C9.90408 215.632 9.93133 222.625 6.57106 222.901C5.51843 222.988 5.6183 217.025 6.17474 213.429C6.83176 209.183 8.05621 206.324 9.43362 202.236Z" fill="white"/>
    <path d="M9.43362 202.236C13.8433 189.146 17.5736 176.402 17.5736 176.402L28.907 182.39L22.8066 194.074C23.3581 196.36 23.9148 198.57 24.4406 200.505C25.6296 204.88 21.007 215.551 18.7661 211.179C17.8967 209.482 18.5069 209.223 19.0179 206.596C19.3292 204.996 19.1095 202.425 19.1095 202.425C19.1095 202.425 13.9892 205.817 12.1769 208.469C10.4957 210.93 9.90408 215.632 9.90408 215.632C9.90408 215.632 9.93133 222.625 6.57106 222.901C5.51843 222.988 5.6183 217.025 6.17474 213.429C6.83176 209.183 8.05621 206.324 9.43362 202.236Z" fill="white"/>
    <path d="M9.43362 202.236C13.8433 189.146 17.5736 176.402 17.5736 176.402L28.907 182.39L22.8066 194.074C23.3581 196.36 23.9148 198.57 24.4406 200.505C25.6296 204.88 21.007 215.551 18.7661 211.179C17.8967 209.482 18.5069 209.223 19.0179 206.596C19.3292 204.996 19.1095 202.425 19.1095 202.425C19.1095 202.425 13.9892 205.817 12.1769 208.469C10.4957 210.93 9.90408 215.632 9.90408 215.632C9.90408 215.632 9.93133 222.625 6.57106 222.901C5.51843 222.988 5.6183 217.025 6.17474 213.429C6.83176 209.183 8.05621 206.324 9.43362 202.236Z" stroke="#111111" stroke-linecap="round" stroke-linejoin="round"/>
    <path d="M34.894 104.706C37.3571 100.726 42.5721 95.5026 42.5721 95.5026C42.5721 95.5026 51.0018 89.4431 55.6979 91.9278C58.4694 93.3942 59.4728 95.3309 60.6748 98.225C63.2014 104.308 61.0359 105.084 58.7165 111.247C56.0069 118.448 53.6533 126.137 48.5734 131.917C44.5533 136.491 34.3427 137.915 29.8893 137.985C24.6097 138.068 28.5737 114.917 34.894 104.706Z" fill="white" stroke="#111111" stroke-linecap="round" stroke-linejoin="round"/>
    <path d="M166.701 107.976C164.361 103.922 159.31 98.5401 159.31 98.5401C159.31 98.5401 151.072 92.2233 146.301 94.5618C143.486 95.9419 142.423 97.8468 141.132 100.702C138.419 106.704 140.559 107.547 142.687 113.779C145.173 121.059 147.289 128.818 152.188 134.752C156.065 139.448 166.226 141.186 170.675 141.394C175.95 141.64 172.703 118.377 166.701 107.976Z" fill="white" stroke="#111111" stroke-linecap="round" stroke-linejoin="round"/>
    <path d="M86.1241 62.0885C89.1397 56.526 88.3207 45.9932 88.3207 45.9932H115.644C114.035 59.2216 120.069 66.8055 136.283 73.4283V77.0863L67.4516 75.9889V73.4283C67.4516 73.4283 82.0598 69.5852 86.1241 62.0885Z" fill="white" stroke="#111111"/>
    <path d="M96.5838 72.9282C92.6313 65.4311 90.609 56.9134 88.5746 45.5906C88.4409 44.8467 89.0135 44.1631 89.7693 44.1631H114.34C115.093 44.1631 115.665 44.842 115.534 45.5836C113.746 55.7511 111.614 64.1613 106.884 73.7177C106.402 74.6918 107.324 75.8036 108.369 75.5066C116.264 73.2637 121.853 72.6616 130.059 71.964L126.243 82.0138C126.11 82.366 125.82 82.6363 125.46 82.7457L106.301 88.5567C105.833 88.6987 105.495 89.1071 105.444 89.5934L103.513 108.028C103.361 109.488 101.23 109.476 101.094 108.014L99.3659 89.4527C99.3275 89.0403 99.0818 88.6759 98.7139 88.4856L72.0749 74.7082C70.9803 74.1421 71.3276 72.5185 72.5592 72.4761C80.3017 72.2094 87.8261 72.6708 94.8663 74.9564C96.0059 75.3263 97.1426 73.988 96.5838 72.9282Z" fill="white"/>
    <path d="M96.5838 72.9282C92.6313 65.4311 90.609 56.9134 88.5746 45.5906C88.4409 44.8467 89.0135 44.1631 89.7693 44.1631H114.34C115.093 44.1631 115.665 44.842 115.534 45.5836C113.746 55.7511 111.614 64.1613 106.884 73.7177C106.402 74.6918 107.324 75.8036 108.369 75.5066C116.264 73.2637 121.853 72.6616 130.059 71.964L126.243 82.0138C126.11 82.366 125.82 82.6363 125.46 82.7457L106.301 88.5567C105.833 88.6987 105.495 89.1071 105.444 89.5934L103.513 108.028C103.361 109.488 101.23 109.476 101.094 108.014L99.3659 89.4527C99.3275 89.0403 99.0818 88.6759 98.7139 88.4856L72.0749 74.7082C70.9803 74.1421 71.3276 72.5185 72.5592 72.4761C80.3017 72.2094 87.8261 72.6708 94.8663 74.9564C96.0059 75.3263 97.1426 73.988 96.5838 72.9282Z" fill="white"/>
    <path d="M96.5838 72.9282C92.6313 65.4311 90.609 56.9134 88.5746 45.5906C88.4409 44.8467 89.0135 44.1631 89.7693 44.1631H114.34C115.093 44.1631 115.665 44.842 115.534 45.5836C113.746 55.7511 111.614 64.1613 106.884 73.7177C106.402 74.6918 107.324 75.8036 108.369 75.5066C116.264 73.2637 121.853 72.6616 130.059 71.964L126.243 82.0138C126.11 82.366 125.82 82.6363 125.46 82.7457L106.301 88.5567C105.833 88.6987 105.495 89.1071 105.444 89.5934L103.513 108.028C103.361 109.488 101.23 109.476 101.094 108.014L99.3659 89.4527C99.3275 89.0403 99.0818 88.6759 98.7139 88.4856L72.0749 74.7082C70.9803 74.1421 71.3276 72.5185 72.5592 72.4761C80.3017 72.2094 87.8261 72.6708 94.8663 74.9564C96.0059 75.3263 97.1426 73.988 96.5838 72.9282Z" stroke="#111111" stroke-linecap="round"/>
    <path d="M100.402 101.498V91.6653C100.402 89.6747 99.8017 87.7274 98.5417 86.1864C96.1486 83.2595 91.7731 78.5241 87.3703 76.9015C82.9348 75.2668 76.6143 76.1544 72.5985 77.0178C70.109 77.553 68.0826 79.2578 66.8846 81.5048L60.3331 93.793C58.1007 97.9801 59.2119 103.184 63.2596 105.66C67.0101 107.954 71.726 110.419 75.828 111.287C81.1095 112.405 88.1791 111.469 93.3795 110.428C97.5875 109.586 100.402 105.789 100.402 101.498Z" fill="white" stroke="#111111"/>
    <path d="M104.065 101.539V91.6774C104.065 89.6887 104.664 87.7432 105.922 86.2027C108.314 83.2727 112.692 78.5279 117.097 76.9026C121.532 75.266 127.852 76.1545 131.868 77.0189C134.358 77.5548 136.384 79.2609 137.581 81.5089L144.142 93.8291C146.37 98.0137 145.26 103.212 141.217 105.689C137.465 107.988 132.745 110.46 128.639 111.329C123.356 112.449 116.285 111.511 111.084 110.468C106.878 109.625 104.065 105.83 104.065 101.539Z" fill="white" stroke="#111111"/>
    <path d="M158.874 83.1731C163.495 91.4725 164.88 105.559 164.88 105.559C164.88 105.559 151.313 105.121 146.929 101.595C140.722 96.6024 135.342 84.8126 135.342 84.8126C132.231 79.6861 123.863 75.6236 123.863 75.6236C123.863 75.6236 127.775 71.3792 133.016 71.2338C146.197 70.868 153.048 72.7091 158.874 83.1731Z" fill="white" stroke="#111111" stroke-linejoin="round"/>
    <path d="M43.4245 83.1731C38.8034 91.4725 35.6172 103.836 35.6172 103.836C35.6172 103.836 50.986 105.121 55.3696 101.595C61.5773 96.6024 66.9567 84.8126 66.9567 84.8126C70.0676 79.6861 78.4355 75.6236 78.4355 75.6236C78.4355 75.6236 74.5241 71.3792 69.2824 71.2338C56.102 70.868 49.251 72.7091 43.4245 83.1731Z" fill="white" stroke="#111111" stroke-linejoin="round"/>
    <path d="M122.091 23.8346L122.305 19.1343C122.47 15.5191 122.693 11.7038 120.795 8.62296C118.614 5.08484 113.737 0.999834 102.842 1C95.3192 1.00011 90.6322 3.28542 87.7285 5.91784C83.1926 10.0301 83.1309 16.7839 83.1309 22.9065C83.1309 38.2508 86.914 56.8042 102.256 57.0897C102.449 57.0933 102.645 57.0952 102.842 57.0952C117.566 57.0952 121.421 38.5439 122.091 23.8346Z" fill="white" fill-opacity="0.6"/>
    <path d="M122.091 23.8346L122.305 19.1343C122.47 15.5191 122.693 11.7038 120.795 8.62296C118.614 5.08484 113.737 0.999834 102.842 1C95.3192 1.00011 90.6322 3.28542 87.7285 5.91784C83.1926 10.0301 83.1309 16.7839 83.1309 22.9065C83.1309 38.2508 86.914 56.8042 102.256 57.0897C102.449 57.0933 102.645 57.0952 102.842 57.0952C117.566 57.0952 121.421 38.5439 122.091 23.8346Z" fill="white"/>
    <path d="M122.091 23.8346L122.305 19.1343C122.47 15.5191 122.693 11.7038 120.795 8.62296C118.614 5.08484 113.737 0.999834 102.842 1C95.3192 1.00011 90.6322 3.28542 87.7285 5.91784C83.1926 10.0301 83.1309 16.7839 83.1309 22.9065C83.1309 38.2508 86.914 56.8042 102.256 57.0897C102.449 57.0933 102.645 57.0952 102.842 57.0952C117.566 57.0952 121.421 38.5439 122.091 23.8346Z" stroke="#111111" stroke-linejoin="round"/>
</svg>
