<svg width="152" height="147" viewBox="0 0 152 147" fill="none" xmlns="http://www.w3.org/2000/svg">
    <rect width="8" height="143" rx="4" fill="url(#paint0_linear_238_7840)"/>
    <rect x="36" y="7.5" width="8" height="8" rx="4" fill="#2E8EEC"/>
    <path opacity="0.8" d="M49.0568 16V7.27273H54.3239V8.21023H50.1136V11.1591H54.0511V12.0966H50.1136V15.0625H54.392V16H49.0568ZM56.2287 16V7.27273H57.2855V15.0625H61.3423V16H56.2287ZM64.0355 7.27273V16H62.9787V7.27273H64.0355ZM65.6772 8.21023V7.27273H72.2227V8.21023H69.4783V16H68.4215V8.21023H65.6772ZM73.8537 16V7.27273H79.1207V8.21023H74.9105V11.1591H78.848V12.0966H74.9105V15.0625H79.1889V16H73.8537Z" fill="white"/>
    <path d="M16 11H28" stroke="white" stroke-opacity="0.47" stroke-width="0.5"/>
    <path d="M16 42H28" stroke="white" stroke-opacity="0.47" stroke-width="0.5"/>
    <rect x="36" y="38.5" width="8" height="8" rx="4" fill="#4CD964"/>
    <path opacity="0.8" d="M49.4148 47H48.3068L51.5114 38.2727H52.6023L55.8068 47H54.6989L52.0909 39.6534H52.0227L49.4148 47ZM49.8239 43.5909H54.2898V44.5284H49.8239V43.5909ZM59.8594 47H57.1662V38.2727H59.9787C60.8253 38.2727 61.5497 38.4474 62.152 38.7969C62.7543 39.1435 63.2159 39.642 63.5369 40.2926C63.858 40.9403 64.0185 41.7159 64.0185 42.6193C64.0185 43.5284 63.8565 44.3111 63.5327 44.9673C63.2088 45.6207 62.7372 46.1236 62.1179 46.4759C61.4986 46.8253 60.7457 47 59.8594 47ZM58.223 46.0625H59.7912C60.5128 46.0625 61.1108 45.9233 61.5852 45.6449C62.0597 45.3665 62.4134 44.9702 62.6463 44.456C62.8793 43.9418 62.9957 43.3295 62.9957 42.6193C62.9957 41.9148 62.8807 41.3082 62.6506 40.7997C62.4205 40.2884 62.0767 39.8963 61.6193 39.6236C61.1619 39.348 60.5923 39.2102 59.9105 39.2102H58.223V46.0625ZM65.739 38.2727L68.3299 45.6193H68.4322L71.0231 38.2727H72.131L68.9265 47H67.8356L64.631 38.2727H65.739ZM73.0984 47H71.9904L75.195 38.2727H76.2859L79.4904 47H78.3825L75.7745 39.6534H75.7063L73.0984 47ZM73.5075 43.5909H77.9734V44.5284H73.5075V43.5909ZM87.7702 38.2727V47H86.7475L81.9918 40.1477H81.9066V47H80.8498V38.2727H81.8725L86.6452 45.142H86.7305V38.2727H87.7702ZM96.9077 41H95.8509C95.7884 40.696 95.679 40.429 95.5227 40.1989C95.3693 39.9688 95.1818 39.7756 94.9602 39.6193C94.7415 39.4602 94.4986 39.3409 94.2315 39.2614C93.9645 39.1818 93.6861 39.142 93.3963 39.142C92.8679 39.142 92.3892 39.2756 91.9602 39.5426C91.5341 39.8097 91.1946 40.2031 90.9418 40.723C90.6918 41.2429 90.5668 41.8807 90.5668 42.6364C90.5668 43.392 90.6918 44.0298 90.9418 44.5497C91.1946 45.0696 91.5341 45.4631 91.9602 45.7301C92.3892 45.9972 92.8679 46.1307 93.3963 46.1307C93.6861 46.1307 93.9645 46.0909 94.2315 46.0114C94.4986 45.9318 94.7415 45.8139 94.9602 45.6577C95.1818 45.4986 95.3693 45.304 95.5227 45.0739C95.679 44.8409 95.7884 44.5739 95.8509 44.2727H96.9077C96.8281 44.7187 96.6832 45.1179 96.473 45.4702C96.2628 45.8224 96.0014 46.1222 95.6889 46.3693C95.3764 46.6136 95.0256 46.7997 94.6364 46.9276C94.25 47.0554 93.8366 47.1193 93.3963 47.1193C92.652 47.1193 91.9901 46.9375 91.4105 46.5739C90.831 46.2102 90.375 45.6932 90.0426 45.0227C89.7102 44.3523 89.544 43.5568 89.544 42.6364C89.544 41.7159 89.7102 40.9205 90.0426 40.25C90.375 39.5795 90.831 39.0625 91.4105 38.6989C91.9901 38.3352 92.652 38.1534 93.3963 38.1534C93.8366 38.1534 94.25 38.2173 94.6364 38.3452C95.0256 38.473 95.3764 38.6605 95.6889 38.9077C96.0014 39.152 96.2628 39.4503 96.473 39.8026C96.6832 40.152 96.8281 40.5511 96.9077 41ZM98.6154 47V38.2727H103.882V39.2102H99.6722V42.1591H103.61V43.0966H99.6722V46.0625H103.951V47H98.6154ZM108.48 47H105.787V38.2727H108.6C109.446 38.2727 110.171 38.4474 110.773 38.7969C111.375 39.1435 111.837 39.642 112.158 40.2926C112.479 40.9403 112.64 41.7159 112.64 42.6193C112.64 43.5284 112.478 44.3111 112.154 44.9673C111.83 45.6207 111.358 46.1236 110.739 46.4759C110.12 46.8253 109.367 47 108.48 47ZM106.844 46.0625H108.412C109.134 46.0625 109.732 45.9233 110.206 45.6449C110.681 45.3665 111.034 44.9702 111.267 44.456C111.5 43.9418 111.617 43.3295 111.617 42.6193C111.617 41.9148 111.502 41.3082 111.272 40.7997C111.042 40.2884 110.698 39.8963 110.24 39.6236C109.783 39.348 109.213 39.2102 108.532 39.2102H106.844V46.0625Z" fill="white"/>
    <path d="M16 73H28" stroke="white" stroke-opacity="0.47" stroke-width="0.5"/>
    <rect x="36" y="69.5" width="8" height="8" rx="4" fill="#FCFF4B"/>
    <path opacity="0.8" d="M49.0568 78V69.2727H52.0057C52.6903 69.2727 53.25 69.3963 53.6847 69.6435C54.1222 69.8878 54.446 70.2188 54.6562 70.6364C54.8665 71.054 54.9716 71.5199 54.9716 72.0341C54.9716 72.5483 54.8665 73.0156 54.6562 73.4361C54.4489 73.8565 54.1278 74.1918 53.6932 74.4418C53.2585 74.6889 52.7017 74.8125 52.0227 74.8125H49.9091V73.875H51.9886C52.4574 73.875 52.8338 73.794 53.1179 73.6321C53.402 73.4702 53.608 73.2514 53.7358 72.9759C53.8665 72.6974 53.9318 72.3835 53.9318 72.0341C53.9318 71.6847 53.8665 71.3722 53.7358 71.0966C53.608 70.821 53.4006 70.6051 53.1136 70.4489C52.8267 70.2898 52.446 70.2102 51.9716 70.2102H50.1136V78H49.0568ZM56.674 78V69.2727H59.6229C60.3047 69.2727 60.8643 69.3892 61.3018 69.6222C61.7393 69.8523 62.0632 70.169 62.2734 70.5724C62.4837 70.9759 62.5888 71.4347 62.5888 71.9489C62.5888 72.4631 62.4837 72.919 62.2734 73.3168C62.0632 73.7145 61.7408 74.027 61.3061 74.2543C60.8714 74.4787 60.3161 74.5909 59.6399 74.5909H57.2536V73.6364H59.6058C60.0717 73.6364 60.4467 73.5682 60.7308 73.4318C61.0178 73.2955 61.2251 73.1023 61.353 72.8523C61.4837 72.5994 61.549 72.2983 61.549 71.9489C61.549 71.5994 61.4837 71.294 61.353 71.0327C61.2223 70.7713 61.0135 70.5696 60.7266 70.4276C60.4396 70.2827 60.0604 70.2102 59.5888 70.2102H57.7308V78H56.674ZM60.782 74.0795L62.9297 78H61.7024L59.5888 74.0795H60.782ZM71.7134 73.6364C71.7134 74.5568 71.5472 75.3523 71.2148 76.0227C70.8825 76.6932 70.4265 77.2102 69.8469 77.5739C69.2674 77.9375 68.6055 78.1193 67.8612 78.1193C67.1168 78.1193 66.4549 77.9375 65.8754 77.5739C65.2958 77.2102 64.8398 76.6932 64.5075 76.0227C64.1751 75.3523 64.0089 74.5568 64.0089 73.6364C64.0089 72.7159 64.1751 71.9205 64.5075 71.25C64.8398 70.5795 65.2958 70.0625 65.8754 69.6989C66.4549 69.3352 67.1168 69.1534 67.8612 69.1534C68.6055 69.1534 69.2674 69.3352 69.8469 69.6989C70.4265 70.0625 70.8825 70.5795 71.2148 71.25C71.5472 71.9205 71.7134 72.7159 71.7134 73.6364ZM70.6907 73.6364C70.6907 72.8807 70.5643 72.2429 70.3114 71.723C70.0614 71.2031 69.7219 70.8097 69.293 70.5426C68.8668 70.2756 68.3896 70.142 67.8612 70.142C67.3327 70.142 66.854 70.2756 66.4251 70.5426C65.9989 70.8097 65.6594 71.2031 65.4066 71.723C65.1566 72.2429 65.0316 72.8807 65.0316 73.6364C65.0316 74.392 65.1566 75.0298 65.4066 75.5497C65.6594 76.0696 65.9989 76.4631 66.4251 76.7301C66.854 76.9972 67.3327 77.1307 67.8612 77.1307C68.3896 77.1307 68.8668 76.9972 69.293 76.7301C69.7219 76.4631 70.0614 76.0696 70.3114 75.5497C70.5643 75.0298 70.6907 74.392 70.6907 73.6364ZM73.4904 78V69.2727H78.7234V70.2102H74.5472V73.1591H78.3313V74.0966H74.5472V78H73.4904ZM81.5902 69.2727V78H80.5334V69.2727H81.5902ZM90.7319 72H89.6751C89.6126 71.696 89.5032 71.429 89.3469 71.1989C89.1935 70.9688 89.006 70.7756 88.7844 70.6193C88.5657 70.4602 88.3228 70.3409 88.0558 70.2614C87.7887 70.1818 87.5103 70.142 87.2205 70.142C86.6921 70.142 86.2134 70.2756 85.7844 70.5426C85.3583 70.8097 85.0188 71.2031 84.766 71.723C84.516 72.2429 84.391 72.8807 84.391 73.6364C84.391 74.392 84.516 75.0298 84.766 75.5497C85.0188 76.0696 85.3583 76.4631 85.7844 76.7301C86.2134 76.9972 86.6921 77.1307 87.2205 77.1307C87.5103 77.1307 87.7887 77.0909 88.0558 77.0114C88.3228 76.9318 88.5657 76.8139 88.7844 76.6577C89.006 76.4986 89.1935 76.304 89.3469 76.0739C89.5032 75.8409 89.6126 75.5739 89.6751 75.2727H90.7319C90.6523 75.7187 90.5075 76.1179 90.2972 76.4702C90.087 76.8224 89.8256 77.1222 89.5131 77.3693C89.2006 77.6136 88.8498 77.7997 88.4606 77.9276C88.0742 78.0554 87.6609 78.1193 87.2205 78.1193C86.4762 78.1193 85.8143 77.9375 85.2347 77.5739C84.6552 77.2102 84.1992 76.6932 83.8668 76.0227C83.5344 75.3523 83.3683 74.5568 83.3683 73.6364C83.3683 72.7159 83.5344 71.9205 83.8668 71.25C84.1992 70.5795 84.6552 70.0625 85.2347 69.6989C85.8143 69.3352 86.4762 69.1534 87.2205 69.1534C87.6609 69.1534 88.0742 69.2173 88.4606 69.3452C88.8498 69.473 89.2006 69.6605 89.5131 69.9077C89.8256 70.152 90.087 70.4503 90.2972 70.8026C90.5075 71.152 90.6523 71.5511 90.7319 72ZM93.4964 69.2727V78H92.4396V69.2727H93.4964ZM95.6154 78V69.2727H100.882V70.2102H96.6722V73.1591H100.61V74.0966H96.6722V77.0625H100.951V78H95.6154ZM109.708 69.2727V78H108.685L103.929 71.1477H103.844V78H102.787V69.2727H103.81L108.583 76.142H108.668V69.2727H109.708ZM111.345 70.2102V69.2727H117.891V70.2102H115.146V78H114.089V70.2102H111.345Z" fill="white"/>
    <rect x="36" y="100.5" width="8" height="8" rx="4" fill="#F4B43B"/>
    <path opacity="0.8" d="M50.1136 100.273V109H49.0568V100.273H50.1136ZM59.1531 100.273V109H58.1303L53.3746 102.148H53.2894V109H52.2326V100.273H53.2553L58.0281 107.142H58.1133V100.273H59.1531ZM60.7905 101.21V100.273H67.3359V101.21H64.5916V109H63.5348V101.21H60.7905ZM68.967 109V100.273H74.234V101.21H70.0238V104.159H73.9613V105.097H70.0238V108.062H74.3022V109H68.967ZM76.1388 109V100.273H79.0877C79.7695 100.273 80.3292 100.389 80.7667 100.622C81.2042 100.852 81.5281 101.169 81.7383 101.572C81.9485 101.976 82.0536 102.435 82.0536 102.949C82.0536 103.463 81.9485 103.919 81.7383 104.317C81.5281 104.714 81.2056 105.027 80.771 105.254C80.3363 105.479 79.7809 105.591 79.1048 105.591H76.7184V104.636H79.0707C79.5366 104.636 79.9116 104.568 80.1957 104.432C80.4826 104.295 80.69 104.102 80.8178 103.852C80.9485 103.599 81.0138 103.298 81.0138 102.949C81.0138 102.599 80.9485 102.294 80.8178 102.033C80.6871 101.771 80.4783 101.57 80.1914 101.428C79.9045 101.283 79.5252 101.21 79.0536 101.21H77.1957V109H76.1388ZM80.2468 105.08L82.3945 109H81.1673L79.0536 105.08H80.2468ZM83.8146 100.273H85.076L88.0419 107.517H88.1442L91.1101 100.273H92.3714V109H91.3828V102.369H91.2976L88.5703 109H87.6158L84.8885 102.369H84.8033V109H83.8146V100.273ZM94.4904 109V100.273H99.7575V101.21H95.5472V104.159H99.4847V105.097H95.5472V108.062H99.8256V109H94.4904ZM104.355 109H101.662V100.273H104.475C105.321 100.273 106.046 100.447 106.648 100.797C107.25 101.143 107.712 101.642 108.033 102.293C108.354 102.94 108.515 103.716 108.515 104.619C108.515 105.528 108.353 106.311 108.029 106.967C107.705 107.621 107.233 108.124 106.614 108.476C105.995 108.825 105.242 109 104.355 109ZM102.719 108.062H104.287C105.009 108.062 105.607 107.923 106.081 107.645C106.556 107.366 106.909 106.97 107.142 106.456C107.375 105.942 107.492 105.33 107.492 104.619C107.492 103.915 107.377 103.308 107.147 102.8C106.917 102.288 106.573 101.896 106.115 101.624C105.658 101.348 105.088 101.21 104.407 101.21H102.719V108.062ZM111.344 100.273V109H110.287V100.273H111.344ZM113.821 109H112.713L115.918 100.273H117.009L120.213 109H119.105L116.497 101.653H116.429L113.821 109ZM114.23 105.591H118.696V106.528H114.23V105.591ZM120.076 101.21V100.273H126.621V101.21H123.877V109H122.82V101.21H120.076ZM128.252 109V100.273H133.519V101.21H129.309V104.159H133.246V105.097H129.309V108.062H133.587V109H128.252Z" fill="white"/>
    <path d="M16 104H28" stroke="white" stroke-opacity="0.47" stroke-width="0.5"/>
    <path d="M16 135H28" stroke="white" stroke-opacity="0.47" stroke-width="0.5"/>
    <rect x="36" y="131.5" width="8" height="8" rx="4" fill="#F25B28"/>
    <path opacity="0.8" d="M55.9773 131.273V140H54.9545L50.1989 133.148H50.1136V140H49.0568V131.273H50.0795L54.8523 138.142H54.9375V131.273H55.9773ZM65.4556 135.636C65.4556 136.557 65.2894 137.352 64.957 138.023C64.6246 138.693 64.1687 139.21 63.5891 139.574C63.0096 139.938 62.3477 140.119 61.6033 140.119C60.859 140.119 60.1971 139.938 59.6175 139.574C59.038 139.21 58.582 138.693 58.2496 138.023C57.9173 137.352 57.7511 136.557 57.7511 135.636C57.7511 134.716 57.9173 133.92 58.2496 133.25C58.582 132.58 59.038 132.062 59.6175 131.699C60.1971 131.335 60.859 131.153 61.6033 131.153C62.3477 131.153 63.0096 131.335 63.5891 131.699C64.1687 132.062 64.6246 132.58 64.957 133.25C65.2894 133.92 65.4556 134.716 65.4556 135.636ZM64.4329 135.636C64.4329 134.881 64.3065 134.243 64.0536 133.723C63.8036 133.203 63.4641 132.81 63.0352 132.543C62.609 132.276 62.1317 132.142 61.6033 132.142C61.0749 132.142 60.5962 132.276 60.1673 132.543C59.7411 132.81 59.4016 133.203 59.1488 133.723C58.8988 134.243 58.7738 134.881 58.7738 135.636C58.7738 136.392 58.8988 137.03 59.1488 137.55C59.4016 138.07 59.7411 138.463 60.1673 138.73C60.5962 138.997 61.0749 139.131 61.6033 139.131C62.1317 139.131 62.609 138.997 63.0352 138.73C63.4641 138.463 63.8036 138.07 64.0536 137.55C64.3065 137.03 64.4329 136.392 64.4329 135.636ZM67.1804 131.273L69.7713 138.619H69.8736L72.4645 131.273H73.5724L70.3679 140H69.277L66.0724 131.273H67.1804ZM75.9886 131.273V140H74.9318V131.273H75.9886ZM85.1303 134H84.0735C84.011 133.696 83.9016 133.429 83.7454 133.199C83.592 132.969 83.4045 132.776 83.1829 132.619C82.9641 132.46 82.7212 132.341 82.4542 132.261C82.1871 132.182 81.9087 132.142 81.619 132.142C81.0906 132.142 80.6119 132.276 80.1829 132.543C79.7567 132.81 79.4173 133.203 79.1644 133.723C78.9144 134.243 78.7894 134.881 78.7894 135.636C78.7894 136.392 78.9144 137.03 79.1644 137.55C79.4173 138.07 79.7567 138.463 80.1829 138.73C80.6119 138.997 81.0906 139.131 81.619 139.131C81.9087 139.131 82.1871 139.091 82.4542 139.011C82.7212 138.932 82.9641 138.814 83.1829 138.658C83.4045 138.499 83.592 138.304 83.7454 138.074C83.9016 137.841 84.011 137.574 84.0735 137.273H85.1303C85.0508 137.719 84.9059 138.118 84.6957 138.47C84.4854 138.822 84.2241 139.122 83.9116 139.369C83.5991 139.614 83.2482 139.8 82.859 139.928C82.4727 140.055 82.0593 140.119 81.619 140.119C80.8746 140.119 80.2127 139.938 79.6332 139.574C79.0536 139.21 78.5977 138.693 78.2653 138.023C77.9329 137.352 77.7667 136.557 77.7667 135.636C77.7667 134.716 77.9329 133.92 78.2653 133.25C78.5977 132.58 79.0536 132.062 79.6332 131.699C80.2127 131.335 80.8746 131.153 81.619 131.153C82.0593 131.153 82.4727 131.217 82.859 131.345C83.2482 131.473 83.5991 131.661 83.9116 131.908C84.2241 132.152 84.4854 132.45 84.6957 132.803C84.9059 133.152 85.0508 133.551 85.1303 134ZM86.8381 140V131.273H92.1051V132.21H87.8949V135.159H91.8324V136.097H87.8949V139.062H92.1733V140H86.8381Z" fill="white"/>
    <defs>
        <linearGradient id="paint0_linear_238_7840" x1="4" y1="0" x2="4" y2="136.5" gradientUnits="userSpaceOnUse">
            <stop offset="0.0643009" stop-color="#2E8EEC"/>
            <stop offset="0.28908" stop-color="#3DE375"/>
            <stop offset="0.513616" stop-color="#FCFF4B"/>
            <stop offset="0.749245" stop-color="#F6A549"/>
            <stop offset="1" stop-color="#F25B28"/>
        </linearGradient>
    </defs>
</svg>
