<svg width="215" height="67" viewBox="0 0 215 67" fill="none" xmlns="http://www.w3.org/2000/svg">
    <path d="M204.473 51.2681C204.473 51.2681 203.538 60.9677 200.072 59.6573C199.147 59.3079 199.387 57.048 199.961 54.5849C199.961 54.585 199.961 54.585 199.96 54.5851C197.367 60.9982 199.206 39.8335 199.206 39.8335L204.473 51.2681Z" fill="#9396A3" stroke="#111111" stroke-linecap="round" stroke-linejoin="round"/>
    <path d="M203.927 38.4429C202.252 22.4016 200.175 8.47558 200.175 8.47558L186.209 12.3193L190.76 27.1218C189.861 29.6969 188.968 32.1833 188.144 34.3546C186.282 39.2639 189.77 52.2814 192.754 47.521C193.912 45.674 193.296 45.2888 193.107 42.1708C192.991 40.2718 193.574 37.321 193.574 37.321C193.574 37.321 198.579 41.9644 200.154 45.2921C201.615 48.379 201.609 53.915 201.609 53.915C201.609 53.915 200.633 62.0211 204.182 62.8078C205.293 63.0543 205.995 56.1252 205.888 51.8769C205.763 46.8608 204.448 43.4334 203.927 38.4429Z" fill="#9396A3"/>
    <path d="M203.927 38.4429C202.252 22.4016 200.175 8.47558 200.175 8.47558L186.209 12.3193L190.76 27.1218C189.861 29.6969 188.968 32.1833 188.144 34.3546C186.282 39.2639 189.77 52.2814 192.754 47.521C193.912 45.674 193.296 45.2888 193.107 42.1708C192.991 40.2718 193.574 37.321 193.574 37.321C193.574 37.321 198.579 41.9644 200.154 45.2921C201.615 48.379 201.609 53.915 201.609 53.915C201.609 53.915 200.633 62.0211 204.182 62.8078C205.293 63.0543 205.995 56.1252 205.888 51.8769C205.763 46.8608 204.448 43.4334 203.927 38.4429Z" fill="url(#paint0_linear_286_8471)"/>
    <path d="M203.927 38.4429C202.252 22.4016 200.175 8.47558 200.175 8.47558L186.209 12.3193L190.76 27.1218C189.861 29.6969 188.968 32.1833 188.144 34.3546C186.282 39.2639 189.77 52.2814 192.754 47.521C193.912 45.674 193.296 45.2888 193.107 42.1708C192.991 40.2718 193.574 37.321 193.574 37.321C193.574 37.321 198.579 41.9644 200.154 45.2921C201.615 48.379 201.609 53.915 201.609 53.915C201.609 53.915 200.633 62.0211 204.182 62.8078C205.293 63.0543 205.995 56.1252 205.888 51.8769C205.763 46.8608 204.448 43.4334 203.927 38.4429Z" stroke="#111111" stroke-linecap="round" stroke-linejoin="round"/>
    <path d="M11.4764 49.0537C11.4764 49.0537 12.7731 59.1836 16.6835 57.6914C17.7262 57.2935 17.3993 54.9341 16.6877 52.3733C16.6878 52.3734 16.6878 52.3734 16.6878 52.3735C19.7917 59.0032 17.1906 36.8925 17.1906 36.8925L11.4764 49.0537Z" fill="#868892" stroke="#111111" stroke-linecap="round" stroke-linejoin="round"/>
    <path d="M11.6657 34.6006C14.6207 17.9534 16.8161 1.8487 16.8161 1.8487L31.6247 7.03426L26.3672 22.2864C27.451 24.9534 28.5271 27.5277 29.5159 29.7741C31.7515 34.8535 28.0985 48.6117 24.5902 43.727C23.2289 41.8317 23.9204 41.4069 24.0607 38.1338C24.1462 36.1402 23.4124 33.0689 23.4124 33.0689C23.4124 33.0689 17.8319 38.1059 16.121 41.6465C14.5339 44.9309 14.6738 50.7306 14.6738 50.7306C14.6738 50.7306 15.9796 59.1897 11.9625 60.1361C10.7041 60.4326 9.73967 53.1972 9.75856 48.7427C9.78086 43.483 10.7427 39.8005 11.6657 34.6006Z" fill="#9396A3"/>
    <path d="M11.6657 34.6006C14.6207 17.9534 16.8161 1.8487 16.8161 1.8487L31.6247 7.03426L26.3672 22.2864C27.451 24.9534 28.5271 27.5277 29.5159 29.7741C31.7515 34.8535 28.0985 48.6117 24.5902 43.727C23.2289 41.8317 23.9204 41.4069 24.0607 38.1338C24.1462 36.1402 23.4124 33.0689 23.4124 33.0689C23.4124 33.0689 17.8319 38.1059 16.121 41.6465C14.5339 44.9309 14.6738 50.7306 14.6738 50.7306C14.6738 50.7306 15.9796 59.1897 11.9625 60.1361C10.7041 60.4326 9.73967 53.1972 9.75856 48.7427C9.78086 43.483 10.7427 39.8005 11.6657 34.6006Z" fill="url(#paint1_linear_286_8471)"/>
    <path d="M11.6657 34.6006C14.6207 17.9534 16.8161 1.8487 16.8161 1.8487L31.6247 7.03426L26.3672 22.2864C27.451 24.9534 28.5271 27.5277 29.5159 29.7741C31.7515 34.8535 28.0985 48.6117 24.5902 43.727C23.2289 41.8317 23.9204 41.4069 24.0607 38.1338C24.1462 36.1402 23.4124 33.0689 23.4124 33.0689C23.4124 33.0689 17.8319 38.1059 16.121 41.6465C14.5339 44.9309 14.6738 50.7306 14.6738 50.7306C14.6738 50.7306 15.9796 59.1897 11.9625 60.1361C10.7041 60.4326 9.73967 53.1972 9.75856 48.7427C9.78086 43.483 10.7427 39.8005 11.6657 34.6006Z" stroke="#111111" stroke-linecap="round" stroke-linejoin="round"/>
    <defs>
        <linearGradient id="paint0_linear_286_8471" x1="190.726" y1="10.6489" x2="202.801" y2="63.1517" gradientUnits="userSpaceOnUse">
            <stop stop-color="#9396A3"/>
            <stop offset="1" stop-color="#6A6B70"/>
        </linearGradient>
        <linearGradient id="paint1_linear_286_8471" x1="26.9759" y1="3.68509" x2="16.6154" y2="61.0047" gradientUnits="userSpaceOnUse">
            <stop stop-color="#9396A3"/>
            <stop offset="1" stop-color="#6A6B70"/>
        </linearGradient>
    </defs>
</svg>
