<svg width="50" height="71" viewBox="0 0 50 71" fill="none" xmlns="http://www.w3.org/2000/svg">
    <path d="M48.8086 29.4L49.0709 23.6466C49.2726 19.2214 49.5458 14.5513 47.2217 10.7802C44.5526 6.44929 38.5831 1.44902 25.2464 1.44922C16.0384 1.44936 10.3012 4.24671 6.74696 7.46894C1.1947 12.5026 1.11914 20.7697 1.11914 28.264C1.11914 47.0463 5.74986 69.7567 24.5289 70.1063C24.7659 70.1107 25.005 70.1129 25.2464 70.1129C43.2701 70.1129 47.9878 47.4051 48.8086 29.4Z" fill="#9396A3"/>
    <path d="M48.8086 29.4L49.0709 23.6466C49.2726 19.2214 49.5458 14.5513 47.2217 10.7802C44.5526 6.44929 38.5831 1.44902 25.2464 1.44922C16.0384 1.44936 10.3012 4.24671 6.74696 7.46894C1.1947 12.5026 1.11914 20.7697 1.11914 28.264C1.11914 47.0463 5.74986 69.7567 24.5289 70.1063C24.7659 70.1107 25.005 70.1129 25.2464 70.1129C43.2701 70.1129 47.9878 47.4051 48.8086 29.4Z" fill="url(#paint0_linear_226_8405)"/>
    <path d="M48.8086 29.4L49.0709 23.6466C49.2726 19.2214 49.5458 14.5513 47.2217 10.7802C44.5526 6.44929 38.5831 1.44902 25.2464 1.44922C16.0384 1.44936 10.3012 4.24671 6.74696 7.46894C1.1947 12.5026 1.11914 20.7697 1.11914 28.264C1.11914 47.0463 5.74986 69.7567 24.5289 70.1063C24.7659 70.1107 25.005 70.1129 25.2464 70.1129C43.2701 70.1129 47.9878 47.4051 48.8086 29.4Z" stroke="#111111" stroke-linejoin="round"/>
    <defs>
        <linearGradient id="paint0_linear_226_8405" x1="25.2464" y1="1.44922" x2="25.2464" y2="70.1129" gradientUnits="userSpaceOnUse">
            <stop stop-color="#9396A3"/>
            <stop offset="1" stop-color="#6A6B70"/>
        </linearGradient>
    </defs>
</svg>
