<svg width="75" height="84" viewBox="0 0 75 84" fill="none" xmlns="http://www.w3.org/2000/svg">
    <path d="M33.0084 37.2764C27.8535 27.8393 25.3083 17.1279 22.7276 2.71186C22.5944 1.96784 23.1669 1.28418 23.9227 1.28418H54.6455C55.3985 1.28418 55.9705 1.96225 55.8408 2.704C53.6029 15.5044 50.9485 26.0109 44.8999 38.0562C44.4121 39.0275 45.3326 40.1356 46.3766 39.8333C56.3806 36.9372 63.3002 36.1866 73.564 35.3141L68.8463 47.7408C68.7126 48.093 68.4231 48.3633 68.0626 48.4726L44.3095 55.677C43.8416 55.8189 43.5043 56.2274 43.4533 56.7137L40.7842 82.1966C40.6312 83.6571 38.5008 83.6448 38.3647 82.1827L35.9803 56.573C35.9419 56.1606 35.6962 55.7961 35.3284 55.6059L1.71648 38.2222C0.621869 37.6561 0.968932 36.0279 2.20025 35.9778C12.3328 35.5655 22.1739 36.1156 31.3282 39.258C32.4614 39.647 33.5827 38.3278 33.0084 37.2764Z" fill="#FCFF4B" stroke="#111111" stroke-linecap="round"/>
</svg>
